<svg viewBox="0 0 292.96 53.23" xmlns="http://www.w3.org/2000/svg"><g fill="#fff"><path d="m84.48 39.3c2.07 0 3.28 1.22 3.28 2.94 0 1.17-.67 1.99-1.62 2.34 1.24.3 1.96 1.4 1.96 2.62 0 1.72-1.36 2.96-3.35 2.96h-3.8v-10.86h3.54zm-.16 4.75c1.21 0 1.93-.72 1.93-1.73s-.75-1.7-1.99-1.7h-1.81v3.43zm.21 4.79c1.21 0 2.04-.67 2.04-1.73s-.66-1.77-1.97-1.77h-2.15v3.51h2.08z"/><path d="m89.98 53.23 1.84-3.89-3.17-6.55h1.65l2.29 5.09 2.2-5.09h1.54l-4.79 10.45h-1.58z"/><path d="m100.89 50.15v-10.86h1.53v10.86z"/><path d="m106.02 50.15h-1.44v-7.36h1.4v1.06c.53-.92 1.4-1.27 2.27-1.27 1.76 0 2.63 1.27 2.63 2.91v4.67h-1.44v-4.42c0-1.03-.43-1.85-1.72-1.85-1.13 0-1.72.9-1.72 2.02v4.26z"/><path d="m113.4 47.79c.09.76.67 1.38 1.72 1.38.81 0 1.26-.46 1.26-.98 0-.46-.34-.81-.95-.95l-1.26-.28c-1.15-.25-1.84-1.03-1.84-2.07 0-1.26 1.17-2.33 2.62-2.33 2.02 0 2.65 1.31 2.8 1.97l-1.27.48c-.06-.39-.37-1.22-1.53-1.22-.73 0-1.22.48-1.22.98 0 .44.28.76.84.89l1.19.26c1.33.29 2.04 1.1 2.04 2.18s-.87 2.29-2.7 2.29c-2.02 0-2.88-1.3-3-2.15l1.3-.46z"/><path d="m121.19 42.79h1.59v1.3h-1.59v3.83c0 .67.28 1.01 1.03 1.01.18 0 .44-.03.57-.06v1.22c-.12.05-.49.14-.98.14-1.26 0-2.06-.76-2.06-2.1v-4.04h-1.4v-1.3h.39c.8 0 1.13-.49 1.13-1.13v-1.19h1.31v2.33z"/><path d="m128.12 44.24c-.21-.03-.43-.05-.62-.05-1.21 0-2.02.64-2.02 2.27v3.69h-1.44v-7.36h1.4v1.29c.53-1.13 1.45-1.4 2.2-1.4.2 0 .39.03.48.05v1.53z"/><path d="m131.81 50.38c-1.72 0-2.75-1.29-2.75-2.96v-4.64h1.44v4.42c0 1.01.46 1.9 1.67 1.9s1.74-.76 1.74-1.88v-4.44h1.44v6c0 .58.05 1.1.07 1.36h-1.38c-.03-.17-.06-.58-.06-.89-.39.76-1.31 1.12-2.18 1.12z"/><path d="m138.21 46.46c0 1.68 1.06 2.59 2.25 2.59 1.38 0 1.88-.94 2.06-1.51l1.27.55c-.35 1.06-1.4 2.29-3.32 2.29-2.14 0-3.72-1.68-3.72-3.92s1.61-3.9 3.71-3.9c1.96 0 2.97 1.22 3.28 2.34l-1.3.55c-.18-.72-.72-1.56-1.97-1.56-1.17 0-2.23.85-2.23 2.57z"/><path d="m147.02 42.79h1.59v1.3h-1.59v3.83c0 .67.28 1.01 1.03 1.01.18 0 .44-.03.57-.06v1.22c-.12.05-.49.14-.98.14-1.26 0-2.06-.76-2.06-2.1v-4.04h-1.4v-1.3h.39c.8 0 1.13-.49 1.13-1.13v-1.19h1.31v2.33z"/><path d="m152.54 50.38c-1.72 0-2.75-1.29-2.75-2.96v-4.64h1.44v4.42c0 1.01.46 1.9 1.67 1.9s1.74-.76 1.74-1.88v-4.44h1.44v6c0 .58.05 1.1.07 1.36h-1.38c-.03-.17-.06-.58-.06-.89-.39.76-1.31 1.12-2.18 1.12z"/><path d="m162.05 44.24c-.21-.03-.43-.05-.62-.05-1.21 0-2.02.64-2.02 2.27v3.69h-1.44v-7.36h1.4v1.29c.53-1.13 1.45-1.4 2.2-1.4.2 0 .39.03.48.05v1.53z"/><path d="m169.44 48.06c-.41 1.3-1.59 2.33-3.3 2.33-1.97 0-3.71-1.44-3.71-3.94 0-2.31 1.67-3.89 3.52-3.89 2.27 0 3.53 1.56 3.53 3.86 0 .18-.02.37-.03.46h-5.54c.03 1.31.98 2.23 2.22 2.23s1.79-.66 2.07-1.49l1.24.43zm-1.45-2.35c-.03-1.06-.72-1.88-2.02-1.88-1.21 0-1.95.94-2.01 1.88z"/><path d="m58.15 40.52c0 1.89-1.53 3.43-3.43 3.43h-44.93c-1.89 0-3.43-1.53-3.43-3.43v-29.4c0-1.89 1.53-3.43 3.43-3.43h32.79v-6.37h-34.09c-4.69 0-8.49 3.8-8.49 8.48v32.02c0 4.69 3.8 8.49 8.49 8.49h47.55c4.69 0 8.49-3.8 8.49-8.49v-18.58h-6.36v17.27h-.02z"/><path d="m61.33 8.18c2.03 0 3.67-1.64 3.67-3.67s-1.64-3.67-3.67-3.67-3.67 1.64-3.67 3.67 1.64 3.67 3.67 3.67z"/><path d="m50.52 8.18c2.03 0 3.67-1.64 3.67-3.67s-1.64-3.67-3.67-3.67-3.67 1.64-3.67 3.67 1.64 3.67 3.67 3.67z"/><path d="m61.33 11.65c-2.03 0-3.67 1.64-3.67 3.67s1.64 3.67 3.67 3.67 3.67-1.64 3.67-3.67-1.64-3.67-3.67-3.67z"/><circle cx="19.17" cy="31.2" r="7.61"/><path d="m291.11 29.79c-1.99 0-2.88-.84-2.88-2.83v-10.49h4.69v-4.78h-4.69v-6.91h-4.87v3.39c0 1.99-1.06 3.52-3.48 3.52h-1.16v.06c1.21 1.34 2.07 3.01 2.41 4.73h1.76v11.37c0 4.22 2.6 6.73 6.77 6.73 1.95 0 2.97-.37 3.3-.51v-4.45c-.23.05-1.11.18-1.85.18z"/><path d="m87.09 21.16v13.11h-5.68v-33.56h12.45c6.43 0 10.69 4.35 10.69 10.23s-4.26 10.23-10.69 10.23h-6.76zm5.92-5.02c3.6 0 5.77-1.99 5.77-5.16s-2.18-5.25-5.77-5.25h-5.91v10.41z"/><path d="m115.51 34.88c-6.76 0-11.12-5.35-11.12-12.25s4.4-12.07 11.02-12.07c4.07 0 6.15 2.13 6.76 3.69v-3.03h5.35v18.83c0 1.89.19 3.74.24 4.21h-5.25c-.09-.52-.24-1.75-.24-3.31-1.04 2.22-3.45 3.93-6.76 3.93zm.61-4.74c3.6 0 6.1-3.07 6.1-7.53s-2.46-7.29-6.1-7.29-6.25 2.84-6.25 7.29 2.41 7.53 6.25 7.53z"/><path d="m145.26 16.66c-.61-.09-1.23-.14-1.8-.14-4.26 0-6.2 2.46-6.2 6.76v10.98h-5.49v-23.04h5.35v3.69c1.09-2.51 3.64-3.97 6.67-3.97.66 0 1.23.09 1.47.14z"/><path d="m151.46 22.72c0 4.64 2.98 7.24 6.43 7.24s5.25-2.51 5.77-4.26l4.83 1.75c-1.09 3.6-4.54 7.53-10.6 7.53-6.76 0-11.92-5.25-11.92-12.25s5.16-12.21 11.79-12.21c6.2 0 9.61 3.88 10.56 7.57l-4.92 1.8c-.52-2.04-2.08-4.3-5.58-4.3s-6.34 2.51-6.34 7.15v-.02z"/><path d="m176.9 34.26h-5.49v-34.26h5.49v13.44c1.56-2.04 4.17-2.88 6.58-2.88 5.68 0 8.43 4.07 8.43 9.13v14.58h-5.49v-13.63c0-2.84-1.28-5.11-4.74-5.11-3.03 0-4.68 2.27-4.78 5.2v13.54z"/><path d="m196.09 34.26v-23.04h5.25v2.94c1.32-2.37 4.21-3.6 6.81-3.6 3.03 0 5.68 1.37 6.91 4.07 1.8-3.03 4.5-4.07 7.48-4.07 4.17 0 8.14 2.65 8.14 8.76v14.95h-5.3v-14.05c0-2.7-1.37-4.74-4.45-4.74-2.89 0-4.78 2.27-4.78 5.11v13.68h-5.4v-14.05c0-2.65-1.32-4.74-4.45-4.74-2.94 0-4.78 2.18-4.78 5.11v13.68h-5.44z"/><path d="m255.47 27.68c-1.23 4.02-4.87 7.29-10.41 7.29-6.25 0-11.79-4.54-11.79-12.35 0-7.29 5.4-12.12 11.22-12.12 7.1 0 11.26 4.68 11.26 11.97 0 .9-.09 1.65-.15 1.75h-16.84c.15 3.51 2.89 6.01 6.3 6.01s5.02-1.75 5.77-4.02zm-5.26-7.47c-.09-2.7-1.89-5.11-5.68-5.11-3.45 0-5.44 2.65-5.63 5.11z"/><path d="m263.72 34.26h-5.49v-23.04h5.35v3.07c1.51-2.65 4.26-3.74 6.82-3.74 5.63 0 8.33 4.07 8.33 9.13v14.58h-5.49v-13.63c0-2.84-1.28-5.11-4.74-5.11-3.12 0-4.78 2.41-4.78 5.44z"/></g></svg>