<svg viewBox="0 0 773.01 140.45" xmlns="http://www.w3.org/2000/svg"><g fill="#0b1722"><path d="m222.92 103.71c5.45 0 8.65 3.22 8.65 7.75 0 3.08-1.77 5.26-4.29 6.18 3.27.8 5.16 3.71 5.16 6.9 0 4.53-3.58 7.8-8.84 7.8h-10.03v-28.65h9.32l.02.02zm-.44 12.52c3.2 0 5.09-1.89 5.09-4.55s-1.99-4.48-5.26-4.48h-4.77v9.06h4.92l.02-.02zm.56 12.64c3.2 0 5.38-1.77 5.38-4.58s-1.74-4.67-5.21-4.67h-5.67v9.25z"/><path d="m237.42 140.45 4.84-10.27-8.36-17.29h4.36l6.05 13.42 5.81-13.42h4.07l-12.64 27.56h-4.17.02z"/><path d="m266.22 132.33v-28.65h4.04v28.65z"/><path d="m279.73 132.33h-3.8v-19.42h3.71v2.79c1.4-2.42 3.71-3.34 5.98-3.34 4.65 0 6.95 3.34 6.95 7.68v12.33h-3.8v-11.67c0-2.71-1.14-4.89-4.53-4.89-2.98 0-4.53 2.37-4.53 5.33v11.24l.02-.02z"/><path d="m299.21 126.09c.24 2.01 1.77 3.63 4.53 3.63 2.13 0 3.32-1.21 3.32-2.59 0-1.21-.9-2.13-2.49-2.49l-3.32-.73c-3.03-.65-4.84-2.71-4.84-5.45 0-3.32 3.1-6.15 6.9-6.15 5.33 0 7 3.46 7.39 5.21l-3.34 1.26c-.17-1.02-.97-3.22-4.04-3.22-1.94 0-3.22 1.26-3.22 2.59 0 1.16.73 2.01 2.23 2.35l3.15.68c3.51.78 5.38 2.91 5.38 5.76s-2.3 6.03-7.12 6.03c-5.33 0-7.6-3.44-7.92-5.67l3.44-1.21h-.02z"/><path d="m319.77 112.91h4.19v3.44h-4.19v10.1c0 1.77.73 2.66 2.71 2.66.48 0 1.16-.07 1.5-.17v3.22c-.31.12-1.28.36-2.59.36-3.32 0-5.43-2.01-5.43-5.55v-10.66h-3.71v-3.44h1.04c2.11 0 2.98-1.28 2.98-2.98v-3.15h3.46v6.15h.02z"/><path d="m338.05 116.74c-.56-.07-1.14-.12-1.65-.12-3.2 0-5.33 1.7-5.33 5.98v9.74h-3.8v-19.42h3.71v3.39c1.4-2.98 3.83-3.71 5.81-3.71.53 0 1.04.07 1.26.12v4.04z"/><path d="m347.79 132.94c-4.53 0-7.27-3.39-7.27-7.8v-12.23h3.8v11.67c0 2.66 1.21 5.01 4.41 5.01s4.6-2.01 4.6-4.96v-11.72h3.8v15.84c0 1.53.12 2.91.19 3.58h-3.63c-.07-.44-.17-1.53-.17-2.35-1.04 2.01-3.46 2.95-5.74 2.95z"/><path d="m364.67 122.6c0 4.43 2.79 6.83 5.93 6.83 3.63 0 4.96-2.47 5.43-4l3.34 1.45c-.92 2.79-3.71 6.05-8.77 6.05-5.64 0-9.81-4.43-9.81-10.34s4.24-10.29 9.78-10.29c5.16 0 7.85 3.22 8.65 6.18l-3.44 1.45c-.48-1.89-1.89-4.12-5.21-4.12-3.08 0-5.89 2.25-5.89 6.78h-.02z"/><path d="m387.92 112.91h4.19v3.44h-4.19v10.1c0 1.77.73 2.66 2.71 2.66.48 0 1.16-.07 1.5-.17v3.22c-.31.12-1.28.36-2.59.36-3.32 0-5.43-2.01-5.43-5.55v-10.66h-3.71v-3.44h1.04c2.11 0 2.98-1.28 2.98-2.98v-3.15h3.46v6.15h.02z"/><path d="m402.5 132.94c-4.53 0-7.27-3.39-7.27-7.8v-12.23h3.8v11.67c0 2.66 1.21 5.01 4.41 5.01s4.6-2.01 4.6-4.96v-11.72h3.8v15.84c0 1.53.12 2.91.19 3.58h-3.63c-.07-.44-.17-1.53-.17-2.35-1.04 2.01-3.46 2.95-5.74 2.95z"/><path d="m427.59 116.74c-.56-.07-1.14-.12-1.65-.12-3.2 0-5.33 1.7-5.33 5.98v9.74h-3.8v-19.42h3.71v3.39c1.4-2.98 3.83-3.71 5.81-3.71.53 0 1.04.07 1.26.12v4.04z"/><path d="m447.09 126.81c-1.09 3.44-4.19 6.15-8.72 6.15-5.21 0-9.78-3.8-9.78-10.39 0-6.1 4.41-10.27 9.3-10.27 5.98 0 9.32 4.12 9.32 10.17 0 .48-.05.97-.07 1.21h-14.63c.07 3.46 2.59 5.89 5.86 5.89s4.72-1.74 5.45-3.92l3.27 1.14zm-3.83-6.2c-.07-2.79-1.89-4.96-5.33-4.96-3.2 0-5.13 2.47-5.3 4.96z"/></g><path d="m153.43 106.93c0 4.99-4.04 9.06-9.06 9.06h-118.53c-4.99 0-9.06-4.04-9.06-9.06v-77.6c0-4.99 4.04-9.06 9.06-9.06h86.51v-16.78h-89.95c-12.37 0-22.4 10.02-22.4 22.38v84.5c0 12.38 10.03 22.4 22.4 22.4h125.46c12.38 0 22.4-10.03 22.4-22.4v-49.02h-16.78v45.56z" fill="#2b7bba"/><path d="m161.83 21.58c5.35 0 9.69-4.34 9.69-9.69s-4.34-9.69-9.69-9.69-9.69 4.34-9.69 9.69 4.34 9.69 9.69 9.69z" fill="#2b7bba"/><path d="m133.3 21.58c5.35 0 9.69-4.34 9.69-9.69s-4.34-9.69-9.69-9.69-9.69 4.34-9.69 9.69 4.34 9.69 9.69 9.69z" fill="#2b7bba"/><path d="m161.83 30.73c-5.35 0-9.69 4.34-9.69 9.69s4.34 9.69 9.69 9.69 9.69-4.34 9.69-9.69-4.34-9.69-9.69-9.69z" fill="#2b7bba"/><circle cx="50.57" cy="82.32" fill="#2b7bba" r="20.08"/><path d="m768.12 78.59c-5.26 0-7.6-2.2-7.6-7.46v-27.68h12.38v-12.62h-12.38v-18.24h-12.86v8.94c0 5.26-2.81 9.3-9.18 9.3h-3.05v.15c3.2 3.54 5.45 7.94 6.37 12.47h4.65v30.01c0 11.14 6.85 17.75 17.87 17.75 5.13 0 7.85-.97 8.69-1.36v-11.75c-.61.12-2.93.48-4.89.48z" fill="#0b1722"/><path d="m229.79 55.83v34.59h-14.99v-88.56h32.84c16.98 0 28.22 11.48 28.22 26.98s-11.24 26.98-28.22 26.98h-17.85zm15.63-13.25c9.49 0 15.23-5.26 15.23-13.61s-5.74-13.85-15.23-13.85h-15.6v27.46z" fill="#0b1722"/><path d="m304.78 92.03c-17.85 0-29.35-14.12-29.35-32.33s11.6-31.85 29.09-31.85c10.73 0 16.23 5.62 17.85 9.74v-7.99h14.12v49.7c0 4.99.51 9.86.63 11.12h-13.85c-.24-1.38-.63-4.63-.63-8.74-2.74 5.86-9.11 10.37-17.85 10.37zm1.62-12.49c9.49 0 16.11-8.11 16.11-19.86s-6.49-19.23-16.11-19.23-16.49 7.48-16.49 19.23 6.37 19.86 16.49 19.86z" fill="#0b1722"/><path d="m383.3 43.96c-1.62-.24-3.25-.36-4.75-.36-11.24 0-16.35 6.49-16.35 17.85v28.97h-14.48v-60.82h14.12v9.74c2.88-6.61 9.62-10.49 17.61-10.49 1.74 0 3.25.24 3.88.36v14.73l-.02.02z" fill="#0b1722"/><path d="m399.64 59.94c0 12.23 7.87 19.11 16.98 19.11s13.85-6.61 15.23-11.24l12.74 4.63c-2.88 9.49-11.99 19.86-27.97 19.86-17.85 0-31.46-13.85-31.46-32.33s13.61-32.21 31.1-32.21c16.35 0 25.36 10.24 27.85 19.98l-12.98 4.75c-1.38-5.38-5.5-11.36-14.73-11.36s-16.74 6.61-16.74 18.87l-.02-.05z" fill="#0b1722"/><path d="m466.78 90.41h-14.48v-90.41h14.48v35.46c4.12-5.38 11-7.6 17.37-7.6 14.99 0 22.23 10.73 22.23 24.1v38.46h-14.48v-35.97c0-7.48-3.37-13.49-12.5-13.49-7.99 0-12.35 5.98-12.62 13.73z" fill="#0b1722"/><path d="m517.4 90.41v-60.81h13.85v7.75c3.49-6.25 11.12-9.49 17.97-9.49 7.99 0 14.99 3.61 18.24 10.73 4.75-7.99 11.87-10.73 19.74-10.73 11 0 21.48 7 21.48 23.11v39.45h-13.97v-37.08c0-7.12-3.61-12.5-11.75-12.5-7.63 0-12.62 5.98-12.62 13.49v36.09h-14.24v-37.08c0-7-3.49-12.5-11.75-12.5-7.75 0-12.62 5.74-12.62 13.49v36.09h-14.36.02z" fill="#0b1722"/><path d="m674.07 73.05c-3.25 10.61-12.86 19.23-27.46 19.23-16.49 0-31.1-11.99-31.1-32.6 0-19.23 14.24-31.97 29.6-31.97 18.72 0 29.72 12.35 29.72 31.58 0 2.37-.24 4.36-.39 4.63h-44.44c.39 9.25 7.63 15.86 16.61 15.86s13.25-4.63 15.23-10.61zm-13.85-19.72c-.24-7.12-4.99-13.49-14.99-13.49-9.11 0-14.36 7-14.85 13.49z" fill="#0b1722"/><path d="m695.85 90.41h-14.48v-60.81h14.12v8.11c4-7 11.24-9.86 18-9.86 14.85 0 21.97 10.73 21.97 24.1v38.46h-14.48v-35.97c0-7.48-3.37-13.49-12.5-13.49-8.23 0-12.62 6.37-12.62 14.36v35.09z" fill="#0b1722"/></svg>