<svg viewBox="0 0 359.25 65.27" xmlns="http://www.w3.org/2000/svg"><g fill="#2b7bba"><path d="m103.6 48.2c2.53 0 4.02 1.5 4.02 3.6 0 1.43-.82 2.44-1.99 2.87 1.52.37 2.4 1.72 2.4 3.21 0 2.1-1.67 3.62-4.11 3.62h-4.66v-13.32h4.34zm-.21 5.82c1.49 0 2.36-.88 2.36-2.12s-.92-2.08-2.44-2.08h-2.22v4.21h2.3zm.26 5.87c1.49 0 2.5-.82 2.5-2.13s-.81-2.17-2.42-2.17h-2.63v4.3h2.56z"/><path d="m110.34 65.27 2.25-4.77-3.88-8.04h2.03l2.81 6.24 2.7-6.24h1.89l-5.88 12.81h-1.94.01z"/><path d="m123.72 61.5v-13.32h1.88v13.32z"/><path d="m130 61.5h-1.77v-9.03h1.72v1.29c.65-1.13 1.72-1.55 2.78-1.55 2.16 0 3.23 1.55 3.23 3.57v5.73h-1.77v-5.43c0-1.26-.53-2.27-2.1-2.27-1.38 0-2.1 1.1-2.1 2.48v5.22h.01z"/><path d="m139.05 58.6c.11.93.82 1.69 2.1 1.69.99 0 1.54-.56 1.54-1.2 0-.56-.42-.99-1.16-1.16l-1.54-.34c-1.41-.3-2.25-1.26-2.25-2.53 0-1.54 1.44-2.86 3.21-2.86 2.48 0 3.25 1.61 3.43 2.42l-1.55.59c-.08-.47-.45-1.5-1.88-1.5-.9 0-1.5.59-1.5 1.2 0 .54.34.93 1.04 1.09l1.46.32c1.63.36 2.5 1.35 2.5 2.68s-1.07 2.8-3.31 2.8c-2.48 0-3.53-1.6-3.68-2.63l1.6-.56h-.01z"/><path d="m148.61 52.47h1.95v1.6h-1.95v4.69c0 .82.34 1.24 1.26 1.24.23 0 .54-.03.7-.08v1.5c-.15.06-.6.17-1.2.17-1.54 0-2.52-.93-2.52-2.58v-4.95h-1.72v-1.6h.48c.98 0 1.38-.6 1.38-1.38v-1.46h1.61v2.86h.01z"/><path d="m157.11 54.25c-.26-.03-.53-.06-.77-.06-1.49 0-2.48.79-2.48 2.78v4.52h-1.77v-9.03h1.72v1.58c.65-1.38 1.78-1.72 2.7-1.72.25 0 .48.03.59.06v1.88z"/><path d="m161.63 61.78c-2.1 0-3.38-1.58-3.38-3.62v-5.68h1.77v5.43c0 1.24.56 2.33 2.05 2.33s2.14-.93 2.14-2.31v-5.45h1.77v7.36c0 .71.06 1.35.09 1.67h-1.69c-.03-.2-.08-.71-.08-1.09-.48.93-1.61 1.37-2.67 1.37z"/><path d="m169.48 56.98c0 2.06 1.29 3.17 2.76 3.17 1.69 0 2.31-1.15 2.52-1.86l1.55.68c-.43 1.29-1.72 2.81-4.07 2.81-2.62 0-4.56-2.06-4.56-4.81s1.97-4.78 4.55-4.78c2.4 0 3.65 1.5 4.02 2.87l-1.6.68c-.23-.88-.88-1.91-2.42-1.91-1.43 0-2.74 1.05-2.74 3.15z"/><path d="m180.28 52.47h1.95v1.6h-1.95v4.69c0 .82.34 1.24 1.26 1.24.23 0 .54-.03.7-.08v1.5c-.15.06-.6.17-1.2.17-1.54 0-2.52-.93-2.52-2.58v-4.95h-1.72v-1.6h.48c.98 0 1.38-.6 1.38-1.38v-1.46h1.61v2.86h.01z"/><path d="m187.06 61.78c-2.1 0-3.38-1.58-3.38-3.62v-5.68h1.77v5.43c0 1.24.56 2.33 2.05 2.33s2.14-.93 2.14-2.31v-5.45h1.77v7.36c0 .71.06 1.35.09 1.67h-1.69c-.03-.2-.08-.71-.08-1.09-.48.93-1.61 1.37-2.67 1.37z"/><path d="m198.72 54.25c-.26-.03-.53-.06-.77-.06-1.49 0-2.48.79-2.48 2.78v4.52h-1.77v-9.03h1.72v1.58c.65-1.38 1.78-1.72 2.7-1.72.25 0 .48.03.59.06v1.88z"/><path d="m207.78 58.93c-.51 1.6-1.95 2.86-4.05 2.86-2.42 0-4.55-1.77-4.55-4.83 0-2.84 2.05-4.77 4.32-4.77 2.78 0 4.33 1.91 4.33 4.73 0 .23-.02.45-.03.56h-6.8c.03 1.61 1.2 2.74 2.72 2.74s2.19-.81 2.53-1.82l1.52.53zm-1.78-2.88c-.03-1.29-.88-2.31-2.48-2.31-1.49 0-2.39 1.15-2.46 2.31z"/><path d="m71.3 49.69c0 2.32-1.88 4.21-4.21 4.21h-55.08c-2.32 0-4.21-1.88-4.21-4.21v-36.06c0-2.32 1.88-4.21 4.21-4.21h40.21v-7.8h-41.81c-5.75 0-10.41 4.66-10.41 10.4v39.27c0 5.75 4.66 10.41 10.41 10.41h58.3c5.75 0 10.41-4.66 10.41-10.41v-22.78h-7.8v21.17h-.02z"/><path d="m75.21 10.03c2.49 0 4.5-2.01 4.5-4.5s-2.01-4.5-4.5-4.5-4.5 2.01-4.5 4.5 2.01 4.5 4.5 4.5z"/><path d="m61.95 10.03c2.49 0 4.5-2.01 4.5-4.5s-2.01-4.5-4.5-4.5-4.5 2.01-4.5 4.5 2.01 4.5 4.5 4.5z"/><path d="m75.21 14.28c-2.49 0-4.5 2.01-4.5 4.5s2.01 4.5 4.5 4.5 4.5-2.01 4.5-4.5-2.01-4.5-4.5-4.5z"/><circle cx="23.5" cy="38.26" r="9.33"/><path d="m356.97 36.52c-2.44 0-3.53-1.02-3.53-3.47v-12.87h5.75v-5.86h-5.75v-8.47h-5.98v4.15c0 2.44-1.31 4.32-4.27 4.32h-1.42v.07c1.49 1.64 2.53 3.69 2.96 5.8h2.16v13.95c0 5.18 3.19 8.25 8.31 8.25 2.39 0 3.65-.45 4.04-.63v-5.46c-.28.06-1.36.23-2.27.23z"/><path d="m106.79 25.94v16.07h-6.97v-41.14h15.26c7.89 0 13.11 5.34 13.11 12.54s-5.22 12.54-13.11 12.54h-8.3zm7.26-6.15c4.41 0 7.08-2.44 7.08-6.33s-2.67-6.44-7.08-6.44h-7.25v12.76h7.25z"/><path d="m141.64 42.77c-8.3 0-13.64-6.56-13.64-15.03s5.39-14.8 13.52-14.8c4.99 0 7.54 2.61 8.3 4.52v-3.71h6.56v23.1c0 2.32.24 4.58.29 5.17h-6.44c-.11-.64-.29-2.15-.29-4.06-1.27 2.72-4.23 4.82-8.3 4.82zm.75-5.81c4.41 0 7.48-3.77 7.48-9.23s-3.02-8.94-7.48-8.94-7.67 3.48-7.67 8.94 2.96 9.23 7.67 9.23z"/><path d="m178.13 20.43c-.75-.11-1.51-.17-2.21-.17-5.22 0-7.6 3.02-7.6 8.3v13.46h-6.73v-28.27h6.56v4.52c1.34-3.07 4.47-4.87 8.18-4.87.81 0 1.51.11 1.8.17v6.84h-.01z"/><path d="m185.73 27.86c0 5.68 3.66 8.88 7.89 8.88s6.44-3.07 7.08-5.22l5.92 2.15c-1.34 4.41-5.57 9.23-13 9.23-8.3 0-14.62-6.44-14.62-15.03s6.33-14.97 14.45-14.97c7.6 0 11.78 4.76 12.94 9.29l-6.03 2.21c-.64-2.5-2.56-5.28-6.84-5.28s-7.78 3.07-7.78 8.77v-.02z"/><path d="m216.93 42.02h-6.73v-42.02h6.73v16.48c1.91-2.5 5.11-3.53 8.07-3.53 6.97 0 10.33 4.99 10.33 11.2v17.87h-6.73v-16.71c0-3.48-1.56-6.27-5.81-6.27-3.71 0-5.74 2.78-5.86 6.38z"/><path d="m240.45 42.02v-28.27h6.44v3.6c1.62-2.9 5.17-4.41 8.35-4.41 3.71 0 6.97 1.68 8.48 4.99 2.21-3.71 5.52-4.99 9.17-4.99 5.11 0 9.98 3.25 9.98 10.74v18.34h-6.49v-17.23c0-3.31-1.68-5.81-5.46-5.81-3.55 0-5.86 2.78-5.86 6.27v16.77h-6.62v-17.23c0-3.25-1.62-5.81-5.46-5.81-3.6 0-5.86 2.67-5.86 6.27v16.77h-6.67.01z"/><path d="m313.27 33.95c-1.51 4.93-5.98 8.94-12.76 8.94-7.67 0-14.45-5.57-14.45-15.15 0-8.94 6.62-14.86 13.75-14.86 8.7 0 13.81 5.74 13.81 14.68 0 1.1-.11 2.03-.18 2.15h-20.65c.18 4.3 3.55 7.37 7.72 7.37s6.16-2.15 7.08-4.93zm-6.44-9.17c-.11-3.31-2.32-6.27-6.97-6.27-4.23 0-6.67 3.25-6.9 6.27z"/><path d="m323.38 42.02h-6.73v-28.27h6.56v3.77c1.86-3.25 5.22-4.58 8.36-4.58 6.9 0 10.21 4.99 10.21 11.2v17.87h-6.73v-16.71c0-3.48-1.56-6.27-5.81-6.27-3.83 0-5.86 2.96-5.86 6.67v16.31z"/></g></svg>