<svg viewBox="0 0 253.01 192.6" xmlns="http://www.w3.org/2000/svg"><g fill="#071723"><path d="m226.32 154.48c0 7.36-5.97 13.36-13.36 13.36h-174.84c-7.36 0-13.36-5.97-13.36-13.36v-114.47c0-7.36 5.97-13.36 13.36-13.36h127.61v-24.76h-132.68c-18.26 0-33.05 14.79-33.05 33.01v124.65c0 18.26 14.79 33.05 33.05 33.05h185.06c18.26 0 33.05-14.79 33.05-33.05v-72.31h-24.76v67.2l-.07.04z"/><path d="m238.72 28.58c7.9 0 14.29-6.39 14.29-14.29s-6.39-14.29-14.29-14.29-14.29 6.39-14.29 14.29 6.39 14.29 14.29 14.29z"/><path d="m196.64 28.58c7.9 0 14.29-6.39 14.29-14.29s-6.39-14.29-14.29-14.29-14.29 6.39-14.29 14.29 6.39 14.29 14.29 14.29z"/><path d="m238.72 42.09c-7.9 0-14.29 6.39-14.29 14.29s6.39 14.29 14.29 14.29 14.29-6.39 14.29-14.29-6.39-14.29-14.29-14.29z"/><circle cx="74.6" cy="118.18" r="29.62"/></g></svg>