<svg viewBox="0 0 227.74 124.63" xmlns="http://www.w3.org/2000/svg"><g fill="#071723"><path d="m70.02 109.63c2.22 0 3.53 1.31 3.53 3.16 0 1.25-.72 2.14-1.75 2.52 1.33.33 2.1 1.51 2.1 2.82 0 1.85-1.46 3.18-3.61 3.18h-4.09v-11.69h3.81zm-.18 5.12c1.3 0 2.08-.77 2.08-1.86s-.81-1.83-2.14-1.83h-1.95v3.7h2.02zm.23 5.16c1.3 0 2.19-.72 2.19-1.87s-.71-1.91-2.12-1.91h-2.31v3.77h2.24z"/><path d="m75.94 124.63 1.98-4.19-3.41-7.06h1.78l2.47 5.47 2.37-5.47h1.66l-5.16 11.24h-1.7z"/><path d="m87.68 121.32v-11.69h1.65v11.69z"/><path d="m93.2 121.32h-1.55v-7.92h1.51v1.14c.57-.99 1.51-1.36 2.44-1.36 1.9 0 2.84 1.36 2.84 3.13v5.03h-1.55v-4.76c0-1.11-.46-2-1.85-2-1.22 0-1.85.97-1.85 2.17v4.58z"/><path d="m101.14 118.77c.1.82.72 1.48 1.85 1.48.87 0 1.35-.49 1.35-1.06 0-.49-.37-.87-1.02-1.02l-1.35-.3c-1.24-.27-1.98-1.11-1.98-2.22 0-1.35 1.26-2.51 2.82-2.51 2.17 0 2.86 1.41 3.01 2.12l-1.36.51c-.07-.42-.4-1.31-1.65-1.31-.79 0-1.31.51-1.31 1.06 0 .47.3.82.91.96l1.28.28c1.43.32 2.19 1.19 2.19 2.35s-.94 2.46-2.91 2.46c-2.17 0-3.1-1.4-3.23-2.31z"/><path d="m109.53 113.4h1.71v1.4h-1.71v4.12c0 .72.3 1.09 1.11 1.09.2 0 .47-.03.61-.07v1.31c-.13.05-.52.15-1.06.15-1.35 0-2.21-.82-2.21-2.26v-4.35h-1.51v-1.4h.42c.86 0 1.22-.52 1.22-1.22v-1.28h1.41v2.51z"/><path d="m116.99 114.96c-.23-.03-.46-.05-.67-.05-1.3 0-2.17.69-2.17 2.44v3.97h-1.55v-7.92h1.51v1.38c.57-1.22 1.56-1.51 2.37-1.51.22 0 .42.03.51.05v1.65z"/><path d="m120.96 121.57c-1.85 0-2.96-1.38-2.96-3.18v-4.99h1.55v4.76c0 1.09.49 2.05 1.8 2.05s1.88-.82 1.88-2.03v-4.78h1.55v6.46c0 .62.05 1.19.08 1.46h-1.48c-.03-.18-.07-.62-.07-.96-.42.82-1.41 1.21-2.34 1.21z"/><path d="m127.85 117.35c0 1.81 1.14 2.79 2.42 2.79 1.48 0 2.03-1.01 2.21-1.63l1.36.59c-.38 1.14-1.51 2.47-3.58 2.47-2.3 0-4-1.81-4-4.22s1.73-4.2 3.99-4.2c2.1 0 3.2 1.31 3.53 2.52l-1.4.59c-.2-.77-.77-1.68-2.12-1.68-1.25 0-2.4.92-2.4 2.77z"/><path d="m137.34 113.4h1.71v1.4h-1.71v4.12c0 .72.3 1.09 1.11 1.09.2 0 .47-.03.61-.07v1.31c-.13.05-.52.15-1.06.15-1.35 0-2.21-.82-2.21-2.26v-4.35h-1.51v-1.4h.42c.86 0 1.22-.52 1.22-1.22v-1.28h1.41v2.51z"/><path d="m143.29 121.57c-1.85 0-2.96-1.38-2.96-3.18v-4.99h1.55v4.76c0 1.09.49 2.05 1.8 2.05s1.88-.82 1.88-2.03v-4.78h1.55v6.46c0 .62.05 1.19.08 1.46h-1.48c-.03-.18-.07-.62-.07-.96-.42.82-1.41 1.21-2.34 1.21z"/><path d="m153.52 114.96c-.23-.03-.46-.05-.67-.05-1.3 0-2.17.69-2.17 2.44v3.97h-1.55v-7.92h1.51v1.38c.57-1.22 1.56-1.51 2.37-1.51.22 0 .42.03.51.05v1.65z"/><path d="m161.48 119.07c-.44 1.4-1.71 2.51-3.56 2.51-2.12 0-3.99-1.55-3.99-4.24 0-2.49 1.8-4.19 3.79-4.19 2.44 0 3.8 1.68 3.8 4.15 0 .2-.02.4-.03.49h-5.97c.03 1.41 1.06 2.4 2.39 2.4s1.93-.71 2.22-1.6l1.33.46zm-1.56-2.53c-.03-1.14-.77-2.03-2.17-2.03-1.3 0-2.09 1.01-2.16 2.03h4.34z"/><path d="m141.48 42.73c0 2.04-1.65 3.7-3.7 3.7h-48.37c-2.04 0-3.7-1.65-3.7-3.7v-31.66c0-2.04 1.65-3.7 3.7-3.7h35.3v-6.85h-36.7c-5.05 0-9.14 4.09-9.14 9.14v34.48c0 5.05 4.09 9.14 9.14 9.14h51.18c5.05 0 9.14-4.09 9.14-9.14v-20h-6.85z"/><path d="m144.91 7.9c2.18 0 3.95-1.77 3.95-3.95s-1.77-3.95-3.95-3.95-3.95 1.77-3.95 3.95 1.77 3.95 3.95 3.95z"/><path d="m133.26 7.9c2.18 0 3.95-1.77 3.95-3.95s-1.77-3.95-3.95-3.95-3.95 1.77-3.95 3.95 1.77 3.95 3.95 3.95z"/><path d="m144.91 11.64c-2.18 0-3.95 1.77-3.95 3.95s1.77 3.95 3.95 3.95 3.95-1.77 3.95-3.95-1.77-3.95-3.95-3.95z"/><circle cx="99.5" cy="32.69" r="8.19"/><path d="m225.74 99.39c-2.14 0-3.1-.9-3.1-3.04v-11.29h5.05v-5.15h-5.05v-7.44h-5.25v3.65c0 2.14-1.15 3.79-3.74 3.79h-1.25v.06c1.3 1.44 2.22 3.24 2.6 5.09h1.9v12.24c0 4.55 2.8 7.24 7.29 7.24 2.09 0 3.2-.4 3.55-.55v-4.79c-.25.05-1.2.2-2 .2z"/><path d="m6.12 90.11v14.11h-6.12v-36.12h13.4c6.93 0 11.51 4.68 11.51 11.01s-4.58 11.01-11.51 11.01h-7.28zm6.36-5.41c3.87 0 6.22-2.14 6.22-5.55s-2.34-5.65-6.22-5.65h-6.36v11.21h6.36z"/><path d="m36.7 104.88c-7.28 0-11.98-5.76-11.98-13.19s4.73-12.99 11.87-12.99c4.38 0 6.62 2.29 7.28 3.97v-3.26h5.76v20.28c0 2.04.21 4.02.26 4.54h-5.65c-.1-.56-.26-1.89-.26-3.57-1.12 2.39-3.72 4.23-7.28 4.23zm.66-5.1c3.87 0 6.57-3.31 6.57-8.1s-2.65-7.85-6.57-7.85-6.73 3.05-6.73 7.85 2.6 8.1 6.73 8.1z"/><path d="m68.74 85.26c-.66-.1-1.32-.15-1.94-.15-4.58 0-6.67 2.65-6.67 7.28v11.82h-5.91v-24.81h5.76v3.97c1.18-2.7 3.92-4.28 7.18-4.28.71 0 1.32.1 1.58.15v6.01z"/><path d="m75.4 91.79c0 4.99 3.21 7.8 6.93 7.8s5.65-2.7 6.22-4.58l5.2 1.89c-1.18 3.87-4.89 8.1-11.41 8.1-7.28 0-12.84-5.65-12.84-13.19s5.55-13.14 12.69-13.14c6.67 0 10.35 4.18 11.36 8.15l-5.3 1.94c-.56-2.19-2.24-4.63-6.01-4.63s-6.83 2.7-6.83 7.7v-.02z"/><path d="m102.79 104.22h-5.91v-36.89h5.91v14.47c1.68-2.19 4.49-3.1 7.08-3.1 6.12 0 9.07 4.38 9.07 9.83v15.69h-5.91v-14.67c0-3.05-1.37-5.5-5.1-5.5-3.26 0-5.04 2.44-5.15 5.6v14.57z"/><path d="m123.44 104.22v-24.81h5.65v3.16c1.42-2.55 4.54-3.87 7.33-3.87 3.26 0 6.12 1.47 7.44 4.38 1.94-3.26 4.84-4.38 8.05-4.38 4.49 0 8.76 2.86 8.76 9.43v16.1h-5.7v-15.13c0-2.91-1.47-5.1-4.79-5.1-3.11 0-5.15 2.44-5.15 5.5v14.72h-5.81v-15.13c0-2.86-1.42-5.1-4.79-5.1-3.16 0-5.15 2.34-5.15 5.5v14.72h-5.86z"/><path d="m187.38 97.13c-1.32 4.33-5.25 7.85-11.21 7.85-6.73 0-12.69-4.89-12.69-13.3 0-7.85 5.81-13.04 12.07-13.04 7.64 0 12.12 5.04 12.12 12.88 0 .97-.1 1.78-.16 1.89h-18.13c.16 3.77 3.11 6.47 6.78 6.47s5.4-1.89 6.22-4.33l4.99 1.58zm-5.66-8.05c-.1-2.91-2.04-5.5-6.12-5.5-3.72 0-5.86 2.86-6.06 5.5h12.17z"/><path d="m196.25 104.22h-5.91v-24.81h5.76v3.31c1.63-2.86 4.58-4.02 7.34-4.02 6.06 0 8.96 4.38 8.96 9.83v15.69h-5.91v-14.67c0-3.05-1.37-5.5-5.1-5.5-3.36 0-5.15 2.6-5.15 5.86v14.32z"/></g></svg>