<svg viewBox="0 0 292.19 159.9" xmlns="http://www.w3.org/2000/svg"><g fill="#fff"><path d="m89.83 140.66c2.85 0 4.53 1.69 4.53 4.06 0 1.61-.93 2.75-2.24 3.23 1.71.42 2.7 1.94 2.7 3.61 0 2.37-1.88 4.08-4.63 4.08h-5.25v-15h4.89zm-.22 6.56c1.67 0 2.66-.99 2.66-2.38s-1.04-2.35-2.75-2.35h-2.5v4.74h2.59zm.29 6.62c1.67 0 2.81-.93 2.81-2.4s-.91-2.45-2.73-2.45h-2.97v4.84h2.88z"/><path d="m97.43 159.9 2.54-5.38-4.37-9.05h2.28l3.17 7.02 3.04-7.02h2.13l-6.62 14.43h-2.18z"/><path d="m112.49 155.66v-15h2.12v15z"/><path d="m119.58 155.66h-1.99v-10.17h1.94v1.46c.74-1.27 1.94-1.75 3.13-1.75 2.43 0 3.64 1.75 3.64 4.02v6.45h-1.99v-6.11c0-1.42-.6-2.56-2.37-2.56-1.56 0-2.37 1.24-2.37 2.79v5.88h.01z"/><path d="m129.77 152.38c.13 1.05.93 1.9 2.37 1.9 1.12 0 1.74-.63 1.74-1.36 0-.63-.47-1.12-1.31-1.31l-1.74-.38c-1.58-.34-2.54-1.42-2.54-2.85 0-1.74 1.62-3.22 3.61-3.22 2.79 0 3.66 1.81 3.87 2.73l-1.75.66c-.09-.53-.51-1.69-2.12-1.69-1.01 0-1.69.66-1.69 1.36 0 .61.38 1.05 1.17 1.23l1.65.35c1.84.41 2.81 1.52 2.81 3.02s-1.2 3.16-3.73 3.16c-2.79 0-3.98-1.8-4.15-2.97l1.8-.63h-.01z"/><path d="m140.53 145.49h2.19v1.8h-2.19v5.29c0 .93.38 1.39 1.42 1.39.25 0 .61-.04.79-.09v1.69c-.16.06-.67.19-1.36.19-1.74 0-2.84-1.05-2.84-2.9v-5.58h-1.94v-1.8h.55c1.1 0 1.56-.67 1.56-1.56v-1.65h1.81v3.22z"/><path d="m150.1 147.49c-.29-.04-.6-.06-.86-.06-1.67 0-2.79.89-2.79 3.13v5.1h-1.99v-10.17h1.94v1.77c.74-1.56 2-1.94 3.04-1.94.28 0 .55.04.66.06v2.12z"/><path d="m155.2 155.97c-2.37 0-3.8-1.77-3.8-4.08v-6.4h1.99v6.11c0 1.39.63 2.62 2.31 2.62s2.41-1.05 2.41-2.6v-6.14h1.99v8.29c0 .8.06 1.52.1 1.88h-1.9c-.04-.23-.09-.8-.09-1.23-.55 1.05-1.81 1.55-3 1.55z"/><path d="m164.04 150.56c0 2.32 1.46 3.58 3.11 3.58 1.9 0 2.6-1.29 2.84-2.09l1.75.76c-.48 1.46-1.94 3.17-4.59 3.17-2.95 0-5.13-2.32-5.13-5.41s2.22-5.39 5.12-5.39c2.7 0 4.11 1.69 4.53 3.23l-1.8.76c-.25-.99-.99-2.16-2.73-2.16-1.61 0-3.08 1.18-3.08 3.55h-.01z"/><path d="m176.21 145.49h2.19v1.8h-2.19v5.29c0 .93.38 1.39 1.42 1.39.25 0 .61-.04.79-.09v1.69c-.16.06-.67.19-1.36.19-1.74 0-2.84-1.05-2.84-2.9v-5.58h-1.94v-1.8h.55c1.1 0 1.56-.67 1.56-1.56v-1.65h1.81v3.22z"/><path d="m183.84 155.97c-2.37 0-3.8-1.77-3.8-4.08v-6.4h1.99v6.11c0 1.39.63 2.62 2.31 2.62s2.41-1.05 2.41-2.6v-6.14h1.99v8.29c0 .8.06 1.52.1 1.88h-1.9c-.04-.23-.09-.8-.09-1.23-.55 1.05-1.81 1.55-3 1.55z"/><path d="m196.97 147.49c-.29-.04-.6-.06-.86-.06-1.67 0-2.79.89-2.79 3.13v5.1h-1.99v-10.17h1.94v1.77c.74-1.56 2-1.94 3.04-1.94.28 0 .55.04.66.06v2.12z"/><path d="m207.18 152.77c-.57 1.8-2.19 3.22-4.56 3.22-2.73 0-5.12-1.99-5.12-5.44 0-3.19 2.31-5.38 4.87-5.38 3.13 0 4.88 2.16 4.88 5.32 0 .25-.03.51-.04.63h-7.66c.04 1.81 1.36 3.08 3.07 3.08s2.47-.91 2.85-2.05l1.71.6zm-2.01-3.25c-.04-1.46-.99-2.6-2.79-2.6-1.67 0-2.69 1.29-2.78 2.6z"/><path d="m181.52 54.82c0 2.61-2.12 4.74-4.74 4.74h-62.06c-2.61 0-4.74-2.12-4.74-4.74v-40.62c0-2.61 2.12-4.74 4.74-4.74h45.28v-8.79h-47.08c-6.48 0-11.73 5.25-11.73 11.73v44.23c0 6.48 5.25 11.73 11.73 11.73h65.67c6.48 0 11.73-5.25 11.73-11.73v-25.66h-8.79v23.85z"/><path d="m185.92 10.14c2.8 0 5.07-2.27 5.07-5.07s-2.27-5.07-5.07-5.07-5.07 2.27-5.07 5.07 2.27 5.07 5.07 5.07z"/><path d="m170.97 10.14c2.8 0 5.07-2.27 5.07-5.07s-2.27-5.07-5.07-5.07-5.07 2.27-5.07 5.07 2.27 5.07 5.07 5.07z"/><path d="m185.92 14.93c-2.8 0-5.07 2.27-5.07 5.07s2.27 5.07 5.07 5.07 5.07-2.27 5.07-5.07-2.27-5.07-5.07-5.07z"/><circle cx="127.66" cy="41.94" r="10.51"/><path d="m289.63 127.52c-2.75 0-3.98-1.15-3.98-3.9v-14.49h6.48v-6.61h-6.48v-9.55h-6.73v4.68c0 2.75-1.47 4.87-4.8 4.87h-1.6v.08c1.67 1.85 2.85 4.16 3.33 6.53h2.43v15.71c0 5.83 3.59 9.29 9.36 9.29 2.69 0 4.11-.51 4.55-.71v-6.15c-.32.06-1.53.25-2.56.25z"/><path d="m7.85 115.61v18.1h-7.85v-46.34h17.19c8.89 0 14.77 6.01 14.77 14.12s-5.88 14.12-14.77 14.12zm8.16-6.94c4.97 0 7.97-2.75 7.97-7.12s-3-7.25-7.97-7.25h-8.16v14.38h8.16z"/><path d="m47.08 134.56c-9.34 0-15.37-7.39-15.37-16.92s6.07-16.67 15.23-16.67c5.62 0 8.49 2.94 9.34 5.1v-4.18h7.39v26.01c0 2.61.27 5.16.33 5.82h-7.25c-.13-.72-.33-2.42-.33-4.58-1.43 3.07-4.77 5.43-9.34 5.43zm.85-6.54c4.97 0 8.43-4.25 8.43-10.4s-3.4-10.07-8.43-10.07-8.63 3.92-8.63 10.07 3.33 10.4 8.63 10.4z"/><path d="m88.2 109.4c-.85-.13-1.7-.19-2.48-.19-5.88 0-8.56 3.4-8.56 9.34v15.16h-7.58v-31.83h7.39v5.1c1.51-3.46 5.03-5.49 9.22-5.49.91 0 1.7.13 2.03.19v7.71h-.01z"/><path d="m96.74 117.76c0 6.4 4.12 10 8.89 10s7.25-3.46 7.97-5.88l6.67 2.42c-1.51 4.97-6.28 10.4-14.64 10.4-9.34 0-16.47-7.25-16.47-16.92s7.12-16.86 16.28-16.86c8.56 0 13.27 5.36 14.58 10.46l-6.8 2.48c-.72-2.81-2.88-5.95-7.71-5.95s-8.76 3.46-8.76 9.88v-.03z"/><path d="m131.89 133.71h-7.58v-47.33h7.58v18.56c2.16-2.81 5.76-3.98 9.09-3.98 7.85 0 11.64 5.62 11.64 12.61v20.13h-7.58v-18.83c0-3.92-1.76-7.06-6.54-7.06-4.18 0-6.47 3.13-6.61 7.19v18.7z"/><path d="m158.38 133.71v-31.83h7.25v4.06c1.83-3.27 5.82-4.97 9.41-4.97 4.18 0 7.85 1.89 9.55 5.62 2.48-4.18 6.21-5.62 10.33-5.62 5.76 0 11.25 3.66 11.25 12.09v20.65h-7.31v-19.41c0-3.73-1.89-6.54-6.15-6.54-3.99 0-6.61 3.13-6.61 7.06v18.89h-7.45v-19.41c0-3.66-1.83-6.54-6.15-6.54-4.06 0-6.61 3-6.61 7.06v18.89h-7.52z"/><path d="m240.41 124.62c-1.7 5.55-6.73 10.07-14.38 10.07-8.63 0-16.28-6.28-16.28-17.06 0-10.07 7.45-16.73 15.49-16.73 9.8 0 15.56 6.47 15.56 16.53 0 1.24-.13 2.28-.2 2.42h-23.26c.2 4.84 3.99 8.3 8.7 8.3s6.93-2.42 7.97-5.55l6.4 2.03zm-7.26-10.33c-.13-3.73-2.61-7.06-7.85-7.06-4.77 0-7.52 3.66-7.77 7.06z"/><path d="m251.79 133.71h-7.58v-31.83h7.39v4.25c2.09-3.66 5.88-5.16 9.42-5.16 7.77 0 11.5 5.62 11.5 12.61v20.13h-7.58v-18.83c0-3.92-1.76-7.06-6.54-7.06-4.31 0-6.61 3.33-6.61 7.52z"/></g></svg>