<svg viewBox="0 0 729.23 165.63" xmlns="http://www.w3.org/2000/svg"><g fill="#0b1722"><path d="m264.59 124.76c6.06 0 9.61 3.59 9.61 8.62 0 3.41-1.98 5.84-4.76 6.87 3.64.9 5.75 4.13 5.75 7.68 0 5.03-4 8.67-9.84 8.67h-11.14v-31.85h10.38zm-.5 13.92c3.55 0 5.66-2.11 5.66-5.07s-2.2-4.99-5.84-4.99h-5.3v10.06zm.63 14.06c3.55 0 5.97-1.98 5.97-5.08s-1.93-5.21-5.79-5.21h-6.29v10.29z"/><path d="m280.7 165.63 5.39-11.41-9.3-19.22h4.85l6.74 14.91 6.47-14.91h4.54l-14.06 30.63z"/><path d="m312.72 156.61v-31.85h4.49v31.85z"/><path d="m327.76 156.61h-4.22v-21.6h4.13v3.1c1.57-2.69 4.13-3.73 6.65-3.73 5.17 0 7.73 3.73 7.73 8.54v13.7h-4.22v-12.98c0-3.01-1.26-5.43-5.03-5.43-3.32 0-5.03 2.65-5.03 5.93v12.49z"/><path d="m349.4 149.64c.27 2.25 1.98 4.04 5.03 4.04 2.38 0 3.68-1.35 3.68-2.87 0-1.35-.99-2.38-2.78-2.78l-3.68-.81c-3.37-.72-5.39-3.01-5.39-6.06 0-3.68 3.46-6.83 7.68-6.83 5.93 0 7.77 3.86 8.22 5.79l-3.73 1.39c-.18-1.12-1.08-3.59-4.49-3.59-2.16 0-3.59 1.39-3.59 2.87 0 1.3.81 2.25 2.47 2.6l3.5.76c3.91.85 5.97 3.23 5.97 6.42s-2.56 6.69-7.91 6.69c-5.93 0-8.44-3.82-8.8-6.29l3.82-1.35z"/><path d="m372.26 135h4.67v3.82h-4.67v11.23c0 1.98.81 2.96 3.01 2.96.54 0 1.3-.09 1.66-.18v3.59c-.36.13-1.44.4-2.87.4-3.68 0-6.02-2.25-6.02-6.15v-11.86h-4.13v-3.82h1.17c2.34 0 3.32-1.44 3.32-3.32v-3.5h3.86z"/><path d="m392.6 139.27c-.63-.09-1.26-.13-1.84-.13-3.55 0-5.93 1.89-5.93 6.65v10.82h-4.22v-21.6h4.13v3.77c1.57-3.32 4.27-4.13 6.47-4.13.58 0 1.17.09 1.39.13z"/><path d="m403.42 157.28c-5.03 0-8.08-3.77-8.08-8.67v-13.61h4.22v12.98c0 2.96 1.35 5.57 4.9 5.57s5.12-2.25 5.12-5.52v-13.03h4.22v17.61c0 1.71.13 3.23.22 4h-4.04c-.09-.49-.18-1.71-.18-2.6-1.17 2.25-3.86 3.28-6.38 3.28z"/><path d="m422.19 145.78c0 4.94 3.1 7.59 6.6 7.59 4.04 0 5.52-2.74 6.02-4.45l3.73 1.62c-1.03 3.1-4.13 6.74-9.75 6.74-6.29 0-10.91-4.94-10.91-11.5s4.72-11.46 10.87-11.46c5.75 0 8.71 3.59 9.61 6.87l-3.82 1.62c-.54-2.11-2.11-4.58-5.79-4.58-3.41 0-6.56 2.51-6.56 7.55z"/><path d="m448.05 135h4.67v3.82h-4.67v11.23c0 1.98.81 2.96 3.01 2.96.54 0 1.3-.09 1.66-.18v3.59c-.36.13-1.44.4-2.87.4-3.68 0-6.02-2.25-6.02-6.15v-11.86h-4.13v-3.82h1.17c2.34 0 3.32-1.44 3.32-3.32v-3.5h3.86z"/><path d="m464.26 157.28c-5.03 0-8.08-3.77-8.08-8.67v-13.61h4.22v12.98c0 2.96 1.35 5.57 4.9 5.57s5.12-2.25 5.12-5.52v-13.03h4.22v17.61c0 1.71.13 3.23.22 4h-4.04c-.09-.49-.18-1.71-.18-2.6-1.17 2.25-3.86 3.28-6.38 3.28z"/><path d="m492.15 139.27c-.63-.09-1.26-.13-1.84-.13-3.55 0-5.93 1.89-5.93 6.65v10.82h-4.22v-21.6h4.13v3.77c1.57-3.32 4.27-4.13 6.47-4.13.58 0 1.17.09 1.39.13z"/><path d="m513.84 150.45c-1.21 3.82-4.67 6.83-9.7 6.83-5.79 0-10.87-4.22-10.87-11.54 0-6.78 4.9-11.41 10.33-11.41 6.65 0 10.38 4.58 10.38 11.32 0 .54-.04 1.08-.09 1.35h-16.26c.09 3.86 2.87 6.56 6.51 6.56s5.26-1.93 6.06-4.36l3.64 1.26zm-4.27-6.87c-.09-3.1-2.11-5.52-5.93-5.52-3.55 0-5.7 2.74-5.88 5.52z"/></g><path d="m22.91 65.44c-12.65 0-22.91 10.26-22.91 22.91 0 12.65 10.26 22.91 22.91 22.91s22.91-10.26 22.91-22.91c0-12.65-10.26-22.91-22.91-22.91z" fill="#06873c"/><path d="m94.75 65.44c-2.76 0-5.4.51-7.85 1.41l-14.15-25.77c5.46-4.19 8.99-10.76 8.99-18.17 0-12.65-10.26-22.91-22.91-22.91-12.65 0-22.91 10.26-22.91 22.91s10.26 22.91 22.91 22.91c2.76 0 5.4-.51 7.85-1.41l14.15 25.77c-5.46 4.19-8.99 10.76-8.99 18.17 0 12.65 10.26 22.91 22.91 22.91s22.91-10.26 22.91-22.91c0-12.65-10.26-22.91-22.91-22.91z" fill="#06873c"/><path d="m166.6 65.44c-2.76 0-5.4.51-7.85 1.41l-14.15-25.77c5.46-4.19 8.99-10.76 8.99-18.17 0-12.65-10.26-22.91-22.91-22.91s-22.91 10.26-22.91 22.91 10.26 22.91 22.91 22.91c2.76 0 5.4-.51 7.85-1.41l14.15 25.77c-5.46 4.19-8.99 10.76-8.99 18.17 0 12.65 10.26 22.91 22.91 22.91 12.65 0 22.91-10.26 22.91-22.91 0-12.65-10.26-22.91-22.91-22.91z" fill="#06873c"/><path d="m344.77 99.53v-71.08l-30.09 71.08h-14.16l-29.82-70.81v70.81h-15.93v-96.55h21.79l31.32 73.67 30.9-73.67h22.2v96.55h-16.2z" fill="#0b1722"/><path d="m403.53 101.48c-19.47 0-32-15.39-32-35.27s12.67-34.73 31.73-34.73c11.71 0 17.7 6.13 19.47 10.62v-8.72h15.39v54.2c0 5.45.54 10.76.68 12.12h-15.11c-.27-1.5-.68-5.04-.68-9.53-3 6.4-9.94 11.3-19.47 11.3zm1.77-13.62c10.35 0 17.57-8.85 17.57-21.65s-7.08-20.97-17.57-20.97-17.97 8.17-17.97 20.97 6.94 21.65 17.97 21.65z" fill="#0b1722"/><path d="m611.8 80.78c-3.54 11.58-14.03 20.97-29.96 20.97-17.97 0-33.91-13.07-33.91-35.54 0-20.97 15.52-34.86 32.27-34.86 20.43 0 32.41 13.48 32.41 34.45 0 2.59-.27 4.77-.41 5.04h-48.48c.41 10.08 8.31 17.29 18.11 17.29s14.43-5.04 16.61-11.58l13.34 4.22zm-15.11-21.52c-.27-7.76-5.45-14.71-16.34-14.71-9.94 0-15.66 7.63-16.2 14.71h32.55z" fill="#0b1722"/><path d="m461.13 77.57c.54 5.99 5.04 11.3 13.48 11.3 6.54 0 9.94-3.54 9.94-7.63 0-3.54-2.45-6.26-7.76-7.35l-9.8-2.18c-11.71-2.59-17.84-10.21-17.84-19.34 0-11.58 10.62-21.38 24.38-21.38 18.52 0 24.51 11.98 25.6 18.52l-13.34 3.81c-.54-3.81-3.4-9.94-12.25-9.94-5.58 0-9.53 3.54-9.53 7.63 0 3.54 2.59 6.13 6.67 6.95l10.08 2.04c12.53 2.72 19.06 10.35 19.06 20.15s-8.17 21.24-25.06 21.24c-19.2 0-26.55-12.53-27.37-20.02l13.75-3.81z" fill="#0b1722"/><path d="m536.16 86.34c-5.86 0-8.44-2.45-8.44-8.31v-30.78h13.75v-14.03h-13.75v-20.27h-14.3v9.94c0 5.86-3.13 10.35-10.21 10.35h-3.4v.16c3.55 3.92 6.07 8.84 7.09 13.87h5.16v33.36c0 12.39 7.63 19.74 19.88 19.74 5.72 0 8.72-1.09 9.67-1.5v-13.07c-.68.14-3.27.54-5.45.54z" fill="#0b1722"/><path d="m712.48 33.52-17.83 41.94-19.07-41.94h-9.76v15.94.72l20.24 41.76-15.93 34.72h16.89l42.21-93.14z" fill="#0b1722"/><path d="m657.74 49.46v-16.07c-.68-.14-2.31-.41-4.22-.41-8.72 0-16.07 4.22-19.2 11.44v-10.62h-15.39v66.32h15.8v-31.59c0-12.39 5.58-19.47 17.84-19.47 1.64 0 3.41.14 5.18.41z" fill="#0b1722"/></svg>