<svg viewBox="0 0 332.79 75.59" xmlns="http://www.w3.org/2000/svg"><g fill="#0b1722"><path d="m120.75 56.94c2.77 0 4.39 1.64 4.39 3.94 0 1.56-.9 2.66-2.17 3.14 1.66.41 2.62 1.89 2.62 3.51 0 2.3-1.82 3.96-4.49 3.96h-5.08v-14.53h4.74zm-.23 6.35c1.62 0 2.58-.96 2.58-2.32s-1-2.28-2.66-2.28h-2.42v4.59h2.5zm.29 6.42c1.62 0 2.73-.9 2.73-2.32s-.88-2.38-2.64-2.38h-2.87v4.69h2.79z"/><path d="m128.1 75.59 2.46-5.21-4.24-8.77h2.21l3.08 6.81 2.95-6.81h2.07l-6.42 13.98z"/><path d="m142.71 71.47v-14.53h2.05v14.53z"/><path d="m149.58 71.47h-1.93v-9.86h1.89v1.41c.72-1.23 1.89-1.7 3.03-1.7 2.36 0 3.53 1.7 3.53 3.9v6.25h-1.93v-5.92c0-1.37-.57-2.48-2.3-2.48-1.52 0-2.3 1.21-2.3 2.71v5.7z"/><path d="m159.45 68.29c.12 1.02.9 1.84 2.3 1.84 1.09 0 1.68-.61 1.68-1.31 0-.61-.45-1.09-1.27-1.27l-1.68-.37c-1.54-.33-2.46-1.37-2.46-2.77 0-1.68 1.58-3.12 3.5-3.12 2.71 0 3.55 1.76 3.75 2.64l-1.7.64c-.08-.51-.49-1.64-2.05-1.64-.98 0-1.64.64-1.64 1.31 0 .59.37 1.02 1.13 1.19l1.6.35c1.78.39 2.73 1.48 2.73 2.93s-1.17 3.05-3.61 3.05c-2.71 0-3.85-1.74-4.02-2.87l1.74-.61z"/><path d="m169.88 61.61h2.13v1.74h-2.13v5.13c0 .9.37 1.35 1.37 1.35.25 0 .59-.04.76-.08v1.64c-.16.06-.66.18-1.31.18-1.68 0-2.75-1.03-2.75-2.81v-5.41h-1.89v-1.74h.53c1.07 0 1.52-.66 1.52-1.52v-1.6h1.76v3.12z"/><path d="m179.17 63.56c-.29-.04-.57-.06-.84-.06-1.62 0-2.71.86-2.71 3.03v4.94h-1.93v-9.86h1.89v1.72c.72-1.52 1.95-1.89 2.95-1.89.27 0 .53.04.64.06v2.05z"/><path d="m184.1 71.78c-2.3 0-3.69-1.72-3.69-3.96v-6.21h1.93v5.92c0 1.35.61 2.54 2.23 2.54s2.34-1.02 2.34-2.52v-5.94h1.93v8.04c0 .78.06 1.48.1 1.82h-1.84c-.04-.23-.08-.78-.08-1.19-.53 1.02-1.76 1.5-2.91 1.5z"/><path d="m192.67 66.53c0 2.25 1.41 3.46 3.01 3.46 1.85 0 2.52-1.25 2.75-2.03l1.7.74c-.47 1.41-1.89 3.08-4.45 3.08-2.87 0-4.98-2.26-4.98-5.25s2.15-5.23 4.96-5.23c2.62 0 3.98 1.64 4.39 3.14l-1.74.74c-.25-.96-.96-2.09-2.64-2.09-1.56 0-2.99 1.15-2.99 3.44z"/><path d="m204.47 61.61h2.13v1.74h-2.13v5.13c0 .9.37 1.35 1.37 1.35.25 0 .59-.04.76-.08v1.64c-.16.06-.66.18-1.31.18-1.68 0-2.75-1.03-2.75-2.81v-5.41h-1.89v-1.74h.53c1.07 0 1.52-.66 1.52-1.52v-1.6h1.76v3.12z"/><path d="m211.87 71.78c-2.3 0-3.69-1.72-3.69-3.96v-6.21h1.93v5.92c0 1.35.61 2.54 2.23 2.54s2.34-1.02 2.34-2.52v-5.94h1.93v8.04c0 .78.06 1.48.1 1.82h-1.84c-.04-.23-.08-.78-.08-1.19-.53 1.02-1.76 1.5-2.91 1.5z"/><path d="m224.6 63.56c-.29-.04-.57-.06-.84-.06-1.62 0-2.71.86-2.71 3.03v4.94h-1.93v-9.86h1.89v1.72c.72-1.52 1.95-1.89 2.95-1.89.27 0 .53.04.64.06v2.05z"/><path d="m234.49 68.66c-.55 1.74-2.13 3.12-4.43 3.12-2.64 0-4.96-1.93-4.96-5.27 0-3.1 2.23-5.21 4.71-5.21 3.03 0 4.74 2.09 4.74 5.17 0 .25-.02.49-.04.61h-7.42c.04 1.76 1.31 2.99 2.97 2.99s2.4-.88 2.77-1.99l1.66.57zm-1.94-3.14c-.04-1.41-.96-2.52-2.71-2.52-1.62 0-2.6 1.25-2.69 2.52h5.39z"/><path d="m10.46 29.86c-5.77 0-10.46 4.68-10.46 10.46 0 5.77 4.68 10.46 10.46 10.46s10.46-4.68 10.46-10.46c0-5.77-4.68-10.46-10.46-10.46z"/><path d="m43.24 29.86c-1.26 0-2.46.23-3.58.64l-6.46-11.76c2.49-1.91 4.1-4.91 4.1-8.29 0-5.77-4.68-10.46-10.46-10.46-5.77 0-10.46 4.68-10.46 10.46s4.68 10.46 10.46 10.46c1.26 0 2.46-.23 3.58-.64l6.46 11.76c-2.49 1.91-4.1 4.91-4.1 8.29 0 5.77 4.68 10.46 10.46 10.46s10.46-4.68 10.46-10.46c0-5.77-4.68-10.46-10.46-10.46z"/><path d="m76.03 29.86c-1.26 0-2.46.23-3.58.64l-6.46-11.76c2.49-1.91 4.1-4.91 4.1-8.29 0-5.77-4.68-10.46-10.46-10.46s-10.46 4.68-10.46 10.46 4.68 10.46 10.46 10.46c1.26 0 2.46-.23 3.58-.64l6.46 11.76c-2.49 1.91-4.1 4.91-4.1 8.29 0 5.77 4.68 10.46 10.46 10.46 5.77 0 10.46-4.68 10.46-10.46 0-5.77-4.68-10.46-10.46-10.46z"/><path d="m157.34 45.42v-32.44l-13.73 32.44h-6.46l-13.61-32.31v32.31h-7.27v-44.06h9.94l14.29 33.62 14.1-33.62h10.13v44.06h-7.4z"/><path d="m184.16 46.31c-8.89 0-14.6-7.02-14.6-16.09s5.78-15.85 14.48-15.85c5.34 0 8.08 2.8 8.89 4.85v-3.98h7.02v24.73c0 2.49.25 4.91.31 5.53h-6.9c-.12-.68-.31-2.3-.31-4.35-1.37 2.92-4.54 5.16-8.89 5.16zm.8-6.21c4.72 0 8.02-4.04 8.02-9.88s-3.23-9.57-8.02-9.57-8.2 3.73-8.2 9.57 3.17 9.88 8.2 9.88z"/><path d="m279.2 36.86c-1.62 5.28-6.4 9.57-13.67 9.57-8.2 0-15.47-5.97-15.47-16.22 0-9.57 7.08-15.91 14.73-15.91 9.32 0 14.79 6.15 14.79 15.72 0 1.18-.12 2.18-.19 2.3h-22.12c.19 4.6 3.79 7.89 8.26 7.89s6.59-2.3 7.58-5.28zm-6.9-9.81c-.12-3.54-2.49-6.71-7.46-6.71-4.54 0-7.15 3.48-7.4 6.71h14.85z"/><path d="m210.44 35.4c.25 2.73 2.3 5.16 6.15 5.16 2.98 0 4.54-1.62 4.54-3.48 0-1.62-1.12-2.86-3.54-3.36l-4.47-.99c-5.34-1.18-8.14-4.66-8.14-8.82 0-5.28 4.85-9.76 11.12-9.76 8.45 0 11.19 5.47 11.68 8.45l-6.09 1.74c-.25-1.74-1.55-4.54-5.59-4.54-2.55 0-4.35 1.62-4.35 3.48 0 1.62 1.18 2.8 3.05 3.17l4.6.93c5.72 1.24 8.7 4.72 8.7 9.2s-3.73 9.69-11.43 9.69c-8.76 0-12.12-5.72-12.49-9.13l6.28-1.74z"/><path d="m244.68 39.4c-2.67 0-3.85-1.12-3.85-3.79v-14.04h6.28v-6.4h-6.28v-9.26h-6.53v4.54c0 2.67-1.43 4.72-4.66 4.72h-1.55v.07c1.62 1.79 2.77 4.03 3.24 6.33h2.36v15.23c0 5.65 3.48 9.01 9.07 9.01 2.61 0 3.98-.5 4.41-.68v-5.97c-.31.06-1.49.25-2.49.25z"/><path d="m325.15 15.3-8.14 19.14-8.7-19.14h-4.46v7.27.33l9.24 19.06-7.27 15.84h7.71l19.26-42.5z"/><path d="m300.17 22.57v-7.33c-.31-.06-1.06-.19-1.93-.19-3.98 0-7.33 1.93-8.76 5.22v-4.85h-7.02v30.26h7.21v-14.42c0-5.66 2.55-8.89 8.14-8.89.75 0 1.55.06 2.36.19z"/></g></svg>