<svg viewBox="0 0 251.43 147.62" xmlns="http://www.w3.org/2000/svg"><g fill="#06873c"><path d="m30.4 86.82c-16.79 0-30.4 13.61-30.4 30.4 0 16.79 13.61 30.4 30.4 30.4s30.4-13.61 30.4-30.4c0-16.79-13.61-30.4-30.4-30.4z"/><path d="m125.71 86.82c-3.66 0-7.16.68-10.41 1.87l-18.77-34.2c7.24-5.56 11.92-14.27 11.92-24.1 0-16.79-13.61-30.4-30.4-30.4-16.79 0-30.4 13.61-30.4 30.4s13.61 30.4 30.4 30.4c3.66 0 7.16-.68 10.41-1.87l18.77 34.2c-7.24 5.56-11.92 14.27-11.92 24.1 0 16.79 13.61 30.4 30.4 30.4s30.4-13.61 30.4-30.4c0-16.79-13.61-30.4-30.4-30.4z"/><path d="m221.03 86.82c-3.66 0-7.16.68-10.42 1.87l-18.77-34.2c7.24-5.56 11.92-14.27 11.92-24.1 0-16.79-13.61-30.4-30.4-30.4s-30.4 13.61-30.4 30.4 13.61 30.4 30.4 30.4c3.66 0 7.16-.68 10.41-1.87l18.77 34.2c-7.24 5.56-11.92 14.27-11.92 24.1 0 16.79 13.61 30.4 30.4 30.4 16.79 0 30.4-13.61 30.4-30.4 0-16.79-13.61-30.4-30.4-30.4z"/></g></svg>