<svg viewBox="0 0 256.37 166.34" xmlns="http://www.w3.org/2000/svg"><g fill="#0b1722"><path d="m63.62 144.27c3.27 0 5.19 1.94 5.19 4.66 0 1.85-1.06 3.16-2.58 3.71 1.96.48 3.1 2.23 3.1 4.15 0 2.72-2.15 4.69-5.31 4.69h-6.02v-17.21zm-.27 7.52c1.92 0 3.06-1.13 3.06-2.74s-1.19-2.69-3.16-2.69h-2.87v5.44h2.97zm.34 7.6c1.92 0 3.23-1.06 3.23-2.75s-1.05-2.81-3.13-2.81h-3.4v5.56z"/><path d="m72.32 166.34 2.91-6.17-5.02-10.39h2.62l3.64 8.06 3.49-8.06h2.44l-7.6 16.56h-2.5.01z"/><path d="m89.62 161.47v-17.21h2.43v17.21z"/><path d="m97.75 161.47h-2.28v-11.67h2.23v1.67c.84-1.46 2.23-2.01 3.59-2.01 2.79 0 4.18 2.01 4.18 4.61v7.41h-2.28v-7.01c0-1.63-.68-2.94-2.72-2.94-1.79 0-2.72 1.43-2.72 3.2v6.75h.01z"/><path d="m109.43 157.71c.15 1.21 1.06 2.18 2.72 2.18 1.28 0 1.99-.73 1.99-1.56 0-.73-.54-1.28-1.5-1.5l-1.99-.44c-1.82-.39-2.91-1.63-2.91-3.27 0-1.99 1.86-3.7 4.15-3.7 3.2 0 4.21 2.08 4.44 3.13l-2.01.76c-.1-.61-.58-1.94-2.43-1.94-1.16 0-1.94.76-1.94 1.56 0 .7.44 1.21 1.34 1.41l1.89.41c2.11.47 3.23 1.75 3.23 3.46s-1.38 3.62-4.28 3.62c-3.2 0-4.57-2.07-4.76-3.4l2.07-.73h-.01z"/><path d="m121.79 149.8h2.52v2.07h-2.52v6.07c0 1.06.44 1.6 1.63 1.6.29 0 .7-.04.9-.1v1.94c-.19.07-.77.22-1.56.22-1.99 0-3.26-1.21-3.26-3.33v-6.4h-2.23v-2.07h.63c1.27 0 1.79-.77 1.79-1.79v-1.89h2.08v3.7h.01z"/><path d="m132.79 152.1c-.33-.04-.68-.07-.99-.07-1.92 0-3.2 1.02-3.2 3.59v5.85h-2.28v-11.67h2.23v2.04c.84-1.79 2.3-2.23 3.49-2.23.32 0 .63.04.76.07v2.43z"/><path d="m138.62 161.83c-2.72 0-4.37-2.04-4.37-4.69v-7.35h2.28v7.01c0 1.6.73 3.01 2.65 3.01s2.76-1.21 2.76-2.98v-7.04h2.28v9.52c0 .92.07 1.75.12 2.15h-2.18c-.04-.26-.1-.92-.1-1.41-.63 1.21-2.08 1.78-3.45 1.78z"/><path d="m148.76 155.62c0 2.66 1.67 4.1 3.56 4.1 2.18 0 2.98-1.48 3.26-2.4l2.01.87c-.55 1.67-2.23 3.64-5.27 3.64-3.39 0-5.89-2.66-5.89-6.21s2.55-6.18 5.88-6.18c3.1 0 4.71 1.94 5.19 3.71l-2.07.87c-.29-1.13-1.13-2.47-3.13-2.47-1.85 0-3.54 1.35-3.54 4.07h-.01z"/><path d="m162.75 149.8h2.52v2.07h-2.52v6.07c0 1.06.44 1.6 1.63 1.6.29 0 .7-.04.9-.1v1.94c-.19.07-.77.22-1.56.22-1.99 0-3.26-1.21-3.26-3.33v-6.4h-2.23v-2.07h.63c1.27 0 1.79-.77 1.79-1.79v-1.89h2.08v3.7h.01z"/><path d="m171.51 161.83c-2.72 0-4.37-2.04-4.37-4.69v-7.35h2.28v7.01c0 1.6.73 3.01 2.65 3.01s2.76-1.21 2.76-2.98v-7.04h2.28v9.52c0 .92.07 1.75.12 2.15h-2.18c-.04-.26-.1-.92-.1-1.41-.63 1.21-2.08 1.78-3.45 1.78z"/><path d="m186.57 152.1c-.33-.04-.68-.07-.99-.07-1.92 0-3.2 1.02-3.2 3.59v5.85h-2.28v-11.67h2.23v2.04c.84-1.79 2.3-2.23 3.49-2.23.32 0 .63.04.76.07v2.43z"/><path d="m198.3 158.15c-.65 2.07-2.52 3.7-5.24 3.7-3.13 0-5.88-2.28-5.88-6.24 0-3.67 2.65-6.17 5.59-6.17 3.59 0 5.6 2.47 5.6 6.11 0 .29-.03.58-.04.73h-8.79c.04 2.08 1.56 3.54 3.52 3.54s2.84-1.05 3.27-2.36l1.96.68zm-2.32-3.72c-.04-1.67-1.13-2.98-3.2-2.98-1.92 0-3.08 1.48-3.19 2.98z"/></g><path d="m89.37 35.37c-6.84 0-12.38 5.54-12.38 12.38 0 6.84 5.54 12.38 12.38 12.38s12.38-5.54 12.38-12.38c0-6.84-5.54-12.38-12.38-12.38z" fill="#06873c"/><path d="m128.19 35.37c-1.5 0-2.91.28-4.23.76l-7.64-13.92c2.95-2.27 4.86-5.81 4.86-9.82 0-6.84-5.54-12.38-12.38-12.38-6.84 0-12.38 5.54-12.38 12.38s5.54 12.38 12.38 12.38c1.5 0 2.91-.28 4.23-.76l7.64 13.92c-2.95 2.27-4.86 5.81-4.86 9.82 0 6.84 5.54 12.38 12.38 12.38s12.38-5.54 12.38-12.38c0-6.84-5.54-12.38-12.38-12.38z" fill="#06873c"/><path d="m167.01 35.37c-1.5 0-2.91.28-4.25.76l-7.64-13.92c2.95-2.27 4.86-5.81 4.86-9.82 0-6.84-5.54-12.38-12.38-12.38s-12.38 5.54-12.38 12.38 5.54 12.38 12.38 12.38c1.5 0 2.91-.28 4.23-.76l7.64 13.92c-2.95 2.27-4.86 5.81-4.86 9.82 0 6.84 5.54 12.38 12.38 12.38 6.84 0 12.38-5.54 12.38-12.38 0-6.84-5.54-12.38-12.38-12.38h.01z" fill="#06873c"/><path d="m48.64 136.21v-38.41l-16.27 38.41h-7.65l-16.11-38.25v38.25h-8.61v-52.16h11.77l16.92 39.81 16.7-39.81h11.99v52.16h-8.76.01z" fill="#0b1722"/><path d="m80.39 137.26c-10.52 0-17.29-8.31-17.29-19.06s6.84-18.77 17.14-18.77c6.33 0 9.56 3.32 10.52 5.73v-4.71h8.31v29.29c0 2.94.29 5.81.36 6.55h-8.16c-.15-.81-.36-2.72-.36-5.15-1.62 3.46-5.37 6.11-10.52 6.11zm.95-7.35c5.59 0 9.49-4.79 9.49-11.7s-3.83-11.33-9.49-11.33-9.71 4.41-9.71 11.33 3.75 11.7 9.71 11.7z" fill="#0b1722"/><path d="m192.93 126.08c-1.91 6.26-7.58 11.33-16.18 11.33-9.71 0-18.32-7.06-18.32-19.21 0-11.33 8.4-18.84 17.43-18.84 11.03 0 17.52 7.29 17.52 18.61 0 1.4-.15 2.58-.22 2.72h-26.19c.22 5.44 4.48 9.34 9.79 9.34s7.8-2.72 8.98-6.26l7.22 2.28h-.03zm-8.18-11.63c-.15-4.19-2.94-7.94-8.83-7.94-5.37 0-8.45 4.12-8.76 7.94z" fill="#0b1722"/><path d="m111.52 124.35c.29 3.24 2.72 6.11 7.29 6.11 3.54 0 5.37-1.91 5.37-4.12 0-1.91-1.32-3.39-4.19-3.97l-5.3-1.18c-6.33-1.4-9.63-5.51-9.63-10.45 0-6.26 5.73-11.55 13.17-11.55 10.01 0 13.24 6.47 13.84 10.01l-7.22 2.07c-.29-2.07-1.83-5.37-6.62-5.37-3.01 0-5.15 1.91-5.15 4.12 0 1.91 1.4 3.32 3.61 3.75l5.44 1.11c6.77 1.47 10.3 5.59 10.3 10.88s-4.41 11.48-13.53 11.48c-10.37 0-14.35-6.77-14.78-10.81l7.44-2.07h-.03z" fill="#0b1722"/><path d="m152.05 129.08c-3.16 0-4.57-1.32-4.57-4.48v-16.63h7.44v-7.58h-7.44v-10.96h-7.73v5.37c0 3.16-1.69 5.59-5.51 5.59h-1.83v.09c1.92 2.12 3.27 4.77 3.83 7.49h2.79v18.03c0 6.69 4.12 10.67 10.74 10.67 3.08 0 4.71-.58 5.22-.81v-7.06c-.36.07-1.76.29-2.94.29z" fill="#0b1722"/><path d="m247.32 100.54-9.64 22.66-10.3-22.66h-5.27v8.62.39l10.93 22.55-8.6 18.77h9.13l22.8-50.33z" fill="#0b1722"/><path d="m217.75 109.16v-8.69c-.36-.07-1.25-.22-2.28-.22-4.71 0-8.69 2.28-10.37 6.18v-5.73h-8.31v35.84h8.54v-17.07c0-6.69 3.01-10.52 9.63-10.52.89 0 1.83.07 2.79.22z" fill="#0b1722"/></svg>