<svg viewBox="0 0 196.64 127.59" xmlns="http://www.w3.org/2000/svg"><g fill="#fff"><path d="m48.79 110.66c2.51 0 3.98 1.48 3.98 3.57 0 1.42-.81 2.42-1.98 2.85 1.51.37 2.38 1.71 2.38 3.18 0 2.09-1.65 3.59-4.07 3.59h-4.62v-13.2h4.31zm-.2 5.77c1.47 0 2.34-.87 2.34-2.1s-.92-2.06-2.42-2.06h-2.2v4.17h2.28zm.26 5.82c1.47 0 2.48-.81 2.48-2.11s-.8-2.15-2.4-2.15h-2.61v4.26z"/><path d="m55.47 127.59 2.23-4.73-3.85-7.97h2.01l2.79 6.18 2.68-6.18h1.88l-5.83 12.7h-1.92z"/><path d="m68.74 123.85v-13.2h1.86v13.2z"/><path d="m74.98 123.85h-1.75v-8.95h1.71v1.28c.65-1.12 1.71-1.54 2.76-1.54 2.14 0 3.2 1.54 3.2 3.54v5.68h-1.75v-5.38c0-1.25-.52-2.25-2.09-2.25-1.37 0-2.09 1.09-2.09 2.46v5.18h.01z"/><path d="m83.94 120.97c.11.93.81 1.67 2.09 1.67.98 0 1.53-.56 1.53-1.19 0-.56-.41-.98-1.15-1.15l-1.53-.33c-1.4-.3-2.23-1.25-2.23-2.51 0-1.53 1.43-2.83 3.18-2.83 2.46 0 3.23 1.6 3.4 2.4l-1.54.58c-.08-.47-.45-1.48-1.86-1.48-.89 0-1.48.58-1.48 1.19 0 .54.33.93 1.03 1.08l1.45.31c1.62.36 2.48 1.34 2.48 2.66s-1.06 2.78-3.28 2.78c-2.46 0-3.5-1.58-3.65-2.61l1.58-.56h-.01z"/><path d="m93.42 114.9h1.93v1.58h-1.93v4.65c0 .81.33 1.23 1.25 1.23.22 0 .54-.03.69-.08v1.48c-.15.06-.59.17-1.19.17-1.53 0-2.5-.93-2.5-2.56v-4.91h-1.71v-1.58h.48c.97 0 1.37-.59 1.37-1.37v-1.45h1.6v2.83h.01z"/><path d="m101.85 116.66c-.26-.03-.52-.06-.76-.06-1.47 0-2.46.78-2.46 2.76v4.49h-1.75v-8.95h1.71v1.56c.65-1.37 1.76-1.71 2.68-1.71.25 0 .48.03.58.06v1.86z"/><path d="m106.33 124.13c-2.09 0-3.35-1.56-3.35-3.59v-5.64h1.75v5.38c0 1.23.56 2.31 2.03 2.31s2.12-.93 2.12-2.29v-5.4h1.75v7.3c0 .7.06 1.34.09 1.65h-1.67c-.03-.2-.08-.7-.08-1.08-.48.93-1.6 1.36-2.65 1.36z"/><path d="m114.11 119.36c0 2.04 1.28 3.15 2.73 3.15 1.67 0 2.29-1.14 2.5-1.84l1.54.67c-.42 1.28-1.71 2.79-4.04 2.79-2.6 0-4.52-2.04-4.52-4.77s1.95-4.74 4.51-4.74c2.38 0 3.62 1.48 3.98 2.85l-1.58.67c-.22-.87-.87-1.9-2.4-1.9-1.42 0-2.71 1.04-2.71 3.13h-.01z"/><path d="m124.83 114.9h1.93v1.58h-1.93v4.65c0 .81.33 1.23 1.25 1.23.22 0 .54-.03.69-.08v1.48c-.15.06-.59.17-1.19.17-1.53 0-2.5-.93-2.5-2.56v-4.91h-1.71v-1.58h.48c.97 0 1.37-.59 1.37-1.37v-1.45h1.6v2.83h.01z"/><path d="m131.55 124.13c-2.09 0-3.35-1.56-3.35-3.59v-5.64h1.75v5.38c0 1.23.56 2.31 2.03 2.31s2.12-.93 2.12-2.29v-5.4h1.75v7.3c0 .7.06 1.34.09 1.65h-1.67c-.03-.2-.08-.7-.08-1.08-.48.93-1.6 1.36-2.65 1.36z"/><path d="m143.1 116.66c-.26-.03-.52-.06-.76-.06-1.47 0-2.46.78-2.46 2.76v4.49h-1.75v-8.95h1.71v1.56c.65-1.37 1.76-1.71 2.68-1.71.25 0 .48.03.58.06v1.86z"/><path d="m152.1 121.31c-.5 1.58-1.93 2.83-4.02 2.83-2.4 0-4.51-1.75-4.51-4.79 0-2.81 2.03-4.73 4.29-4.73 2.76 0 4.3 1.9 4.3 4.69 0 .22-.02.45-.03.56h-6.74c.03 1.6 1.19 2.71 2.7 2.71s2.18-.8 2.51-1.81l1.51.52zm-1.78-2.86c-.03-1.28-.87-2.29-2.46-2.29-1.47 0-2.37 1.14-2.44 2.29z"/><path d="m68.55 27.13c-5.25 0-9.5 4.25-9.5 9.5 0 5.25 4.25 9.5 9.5 9.5s9.5-4.25 9.5-9.5c0-5.25-4.25-9.5-9.5-9.5z"/><path d="m98.33 27.13c-1.15 0-2.23.21-3.25.58l-5.86-10.68c2.27-1.74 3.73-4.45 3.73-7.53 0-5.25-4.25-9.5-9.5-9.5-5.25 0-9.5 4.25-9.5 9.5s4.25 9.5 9.5 9.5c1.15 0 2.23-.21 3.25-.58l5.86 10.68c-2.27 1.74-3.73 4.45-3.73 7.53 0 5.25 4.25 9.5 9.5 9.5s9.5-4.25 9.5-9.5c0-5.25-4.25-9.5-9.5-9.5z"/><path d="m128.1 27.13c-1.15 0-2.23.21-3.26.58l-5.86-10.68c2.27-1.74 3.73-4.45 3.73-7.53 0-5.25-4.25-9.5-9.5-9.5s-9.5 4.25-9.5 9.5 4.25 9.5 9.5 9.5c1.15 0 2.23-.21 3.25-.58l5.86 10.68c-2.27 1.74-3.73 4.45-3.73 7.53 0 5.25 4.25 9.5 9.5 9.5 5.25 0 9.5-4.25 9.5-9.5 0-5.25-4.25-9.5-9.5-9.5z"/><path d="m37.31 104.48v-29.46l-12.48 29.46h-5.87l-12.35-29.34v29.34h-6.61v-40.01h9.03l12.98 30.54 12.81-30.54h9.2v40.01h-6.72z"/><path d="m61.66 105.28c-8.07 0-13.26-6.37-13.26-14.62s5.25-14.4 13.15-14.4c4.85 0 7.33 2.54 8.07 4.4v-3.62h6.37v22.47c0 2.25.22 4.45.28 5.02h-6.26c-.11-.62-.28-2.09-.28-3.95-1.24 2.66-4.12 4.69-8.07 4.69zm.73-5.64c4.29 0 7.28-3.67 7.28-8.97s-2.94-8.69-7.28-8.69-7.44 3.38-7.44 8.69 2.88 8.97 7.44 8.97z"/><path d="m147.98 96.71c-1.46 4.8-5.81 8.69-12.41 8.69-7.44 0-14.05-5.41-14.05-14.73 0-8.69 6.44-14.45 13.37-14.45 8.46 0 13.44 5.59 13.44 14.27 0 1.07-.11 1.98-.17 2.09h-20.09c.17 4.17 3.44 7.17 7.51 7.17s5.98-2.09 6.89-4.8l5.54 1.75h-.02zm-6.27-8.92c-.11-3.21-2.25-6.09-6.77-6.09-4.12 0-6.48 3.16-6.72 6.09z"/><path d="m85.54 95.38c.22 2.49 2.09 4.69 5.59 4.69 2.71 0 4.12-1.46 4.12-3.16 0-1.46-1.02-2.6-3.21-3.05l-4.06-.9c-4.85-1.07-7.39-4.23-7.39-8.01 0-4.8 4.4-8.86 10.1-8.86 7.68 0 10.16 4.97 10.61 7.68l-5.54 1.58c-.22-1.58-1.41-4.12-5.08-4.12-2.31 0-3.95 1.46-3.95 3.16 0 1.46 1.07 2.54 2.77 2.88l4.17.85c5.19 1.13 7.9 4.29 7.9 8.35s-3.38 8.81-10.38 8.81c-7.96 0-11-5.19-11.34-8.29l5.7-1.58h-.02z"/><path d="m116.63 99.01c-2.42 0-3.5-1.02-3.5-3.44v-12.76h5.7v-5.81h-5.7v-8.4h-5.93v4.12c0 2.42-1.29 4.29-4.23 4.29h-1.41v.07c1.47 1.63 2.51 3.66 2.94 5.75h2.14v13.83c0 5.13 3.16 8.18 8.24 8.18 2.37 0 3.62-.45 4.01-.62v-5.41c-.28.06-1.35.22-2.25.22z"/><path d="m189.7 77.12-7.39 17.38-7.9-17.38h-4.04v6.61.3l8.38 17.3-6.6 14.4h7l17.49-38.61z"/><path d="m167.02 83.73v-6.66c-.28-.06-.96-.17-1.75-.17-3.62 0-6.66 1.75-7.96 4.74v-4.4h-6.37v27.49h6.55v-13.09c0-5.13 2.31-8.07 7.39-8.07.68 0 1.41.06 2.14.17z"/></g></svg>