<svg viewBox="0 0 770.22 107.01" xmlns="http://www.w3.org/2000/svg"><g fill="#0b1722"><path d="m511.48 43.36v-19.31h-16.2v-24.05h-19.63v11.29c0 7.2-3.93 12.76-12.43 12.76h-5.51v.29c6.31 5.51 10.5 12.36 12.79 19.02h3.19v37.47c0 15.54 9.82 24.87 25.52 24.87 6.38 0 10.31-1.14 12.27-1.96v-18c-1.14.33-4.09.65-6.71.65-6.22 0-9.49-2.29-9.49-9.33v-33.7z"/><path d="m738.47 81.48c-4.09 13.91-16.85 25.52-36.65 25.52-22.09 0-41.56-15.87-41.56-43.03 0-25.69 18.98-42.38 39.59-42.38 24.87 0 39.75 15.87 39.75 41.72 0 3.11-.33 6.38-.33 6.71h-57.59c.49 10.64 9.49 18.32 20.29 18.32 10.14 0 15.71-5.07 18.32-12.27l18.16 5.4zm-20.29-26.34c-.33-8.02-5.56-15.87-18-15.87-11.29 0-17.51 8.51-18 15.87h35.99z"/><path d="m403.66 63.97c0 14.56 9.49 22.74 20.61 22.74s16.69-7.36 18.49-13.58l19.14 6.38c-3.6 13.42-16.2 27.16-37.63 27.16-23.72 0-42.37-18-42.37-42.7s18.32-42.7 41.72-42.7c21.92 0 34.36 13.58 37.79 27.16l-19.47 6.54c-1.96-6.71-7.04-13.58-17.83-13.58s-20.45 8.02-20.45 22.58z"/><path d="m574.36 95.87c-4.42 7.53-13.74 10.8-22.25 10.8-19.47 0-30.6-14.23-30.6-31.74v-50.88h21.76v46.46c0 9 4.58 16.2 14.72 16.2s15.21-6.54 15.21-15.87v-46.79h21.76v65.93c0 6.22.49 11.78.82 14.56h-20.78c-.33-1.64-.65-5.4-.65-8.67z"/><path d="m658.95 45.65c-2.46-.49-4.58-.65-6.54-.65-11.13 0-20.78 5.4-20.78 22.74v36.81h-21.76v-80.5h21.1v11.94c4.91-10.64 16.03-12.6 22.91-12.6 1.8 0 3.44.16 5.07.33v21.92z"/><path d="m293.16 45.65c-2.46-.49-4.58-.65-6.54-.65-11.13 0-20.78 5.4-20.78 22.74v36.81h-21.76v-80.5h21.1v11.94c4.91-10.64 16.03-12.6 22.91-12.6 1.8 0 3.44.16 5.07.33v21.92z"/><path d="m354.45 95.87c-4.42 7.53-13.74 10.8-22.25 10.8-19.47 0-30.6-14.23-30.6-31.74v-50.88h21.76v46.46c0 9 4.58 16.2 14.72 16.2s15.21-6.54 15.21-15.87v-46.79h21.76v65.93c0 6.22.49 11.78.82 14.56h-20.78c-.33-1.64-.65-5.4-.65-8.67z"/><path d="m233.93 43.36v-19.31h-16.2v-24.05h-19.63v11.29c0 7.2-3.93 12.76-12.43 12.76h-3.88c6.05 6.15 8.85 13.61 9.59 19.31h4.77v37.47c0 15.54 9.82 24.87 25.52 24.87 6.38 0 10.31-1.14 12.27-1.96v-18c-1.14.33-4.09.65-6.71.65-6.22 0-9.49-2.29-9.49-9.33v-33.7h16.2z"/><path d="m137.44 78.04c.49 6.38 5.23 12.27 14.72 12.27 7.2 0 10.63-3.76 10.63-8.02 0-3.6-2.46-6.54-8.67-7.85l-10.63-2.45c-15.54-3.44-22.58-12.76-22.58-24.05 0-14.4 12.76-26.34 30.1-26.34 22.91 0 30.6 14.56 31.58 23.23l-18.16 4.09c-.65-4.75-4.09-10.8-13.25-10.8-5.73 0-10.31 3.44-10.31 8.02 0 3.93 2.95 6.38 7.36 7.2l11.45 2.45c15.87 3.27 23.89 12.93 23.89 24.71 0 13.09-10.14 26.5-31.25 26.5-24.21 0-32.56-15.71-33.54-24.87l18.65-4.09z"/><path d="m0 4.07h21.76v100.47h-21.76z"/><path d="m58.41 104.55h-21.76v-80.5h21.1v9.98c4.91-8.34 14.56-12.11 23.23-12.11 19.96 0 29.12 14.23 29.12 31.9v50.72h-21.76v-46.96c0-9-4.42-16.03-14.89-16.03-9.49 0-15.05 7.36-15.05 16.69v46.3z"/><circle cx="757.23" cy="94.02" r="12.99"/></g></svg>