<svg viewBox="0 0 212.5 212.5" xmlns="http://www.w3.org/2000/svg"><path d="m0 0h212.5v212.5h-212.5z" fill="#0f1923"/><path d="m113.28 148.2c0-8.39 7-15.15 15.47-14.76 7.52.35 13.71 6.54 14.06 14.06.39 8.47-6.37 15.47-14.76 15.47s-14.77-6.61-14.77-14.77" fill="#e41e25"/><path d="m113.28 106.25c0-8.39 7-15.15 15.47-14.76 7.52.35 13.71 6.54 14.06 14.06.39 8.47-6.37 15.47-14.76 15.47s-14.77-6.61-14.77-14.77" fill="#088744"/><path d="m113.28 64.3c0-8.39 7-15.15 15.47-14.76 7.52.35 13.71 6.54 14.06 14.06.39 8.47-6.37 15.47-14.76 15.47s-14.77-6.61-14.77-14.77" fill="#2c7bb9"/><path d="m69.68 49.53h24.56v113.42h-24.56z" fill="#fff"/></svg>