<svg viewBox="0 0 310.23 78.94" xmlns="http://www.w3.org/2000/svg"><g fill="#e60305"><path d="m11.03 37.96c0-5.55-4.14-10.23-9.64-10.91-1.85 7.15-1.85 14.65 0 21.81 5.5-.68 9.64-5.35 9.64-10.91"/><path d="m17.41 34.51c-1.91 0-3.45 1.54-3.45 3.45s1.54 3.45 3.45 3.45 3.45-1.54 3.45-3.45c0-1.91-1.54-3.45-3.45-3.45z"/><path d="m65.01 37.96c0 5.55 4.14 10.23 9.64 10.91 1.85-7.15 1.85-14.65 0-21.81-5.5.68-9.64 5.36-9.64 10.91"/><path d="m58.59 34.51c-1.91 0-3.45 1.54-3.45 3.44s1.54 3.45 3.44 3.45 3.45-1.54 3.45-3.44c0-1.9-1.54-3.45-3.44-3.45"/><path d="m37.94 65.05c-5.54 0-10.22 4.14-10.91 9.64 7.15 1.85 14.65 1.85 21.81 0-.68-5.5-5.36-9.64-10.91-9.64"/><path d="m37.95 55.2c-1.91 0-3.45 1.54-3.45 3.44s1.54 3.45 3.44 3.45 3.45-1.54 3.45-3.44c0-1.9-1.54-3.45-3.44-3.45"/><path d="m37.95 11.03c5.54 0 10.22-4.14 10.91-9.64-7.15-1.85-14.65-1.85-21.81 0 .69 5.5 5.36 9.64 10.91 9.64"/><path d="m37.95 13.99c-1.91 0-3.45 1.54-3.45 3.44s1.54 3.45 3.44 3.45 3.45-1.54 3.45-3.44c0-1.9-1.54-3.44-3.44-3.44"/><path d="m57.06 57.07c-3.91 3.92-4.29 10.15-.89 14.52 6.36-3.76 11.67-9.06 15.42-15.42-4.37-3.4-10.6-3.02-14.52.89"/><path d="m50.1 50.12c-1.35 1.35-1.35 3.53 0 4.88s3.53 1.35 4.88 0 1.35-3.53 0-4.88c-1.35-1.34-3.53-1.34-4.88 0"/><path d="m18.89 18.9c3.92-3.92 4.31-10.14.89-14.52-6.36 3.75-11.67 9.06-15.42 15.42 4.37 3.41 10.6 3.02 14.52-.89"/><path d="m20.97 20.98c-1.35 1.35-1.35 3.53 0 4.88s3.53 1.35 4.88 0 1.35-3.53 0-4.88c-1.35-1.34-3.53-1.34-4.88 0"/><path d="m57.04 18.87c3.92 3.91 10.15 4.29 14.52.88-3.76-6.36-9.06-11.66-15.42-15.4-3.4 4.37-3.02 10.6.89 14.52"/><path d="m54.96 25.82c1.35-1.35 1.34-3.53 0-4.87-1.35-1.35-3.53-1.34-4.87 0-1.34 1.35-1.34 3.53 0 4.87 1.35 1.35 3.53 1.35 4.87 0z"/><path d="m18.87 57.04c-3.92-3.91-10.14-4.29-14.52-.89 3.75 6.36 9.06 11.67 15.42 15.42 3.4-4.37 3.02-10.6-.89-14.52"/><path d="m20.93 50.08c-1.35 1.35-1.35 3.53 0 4.88s3.53 1.35 4.88 0 1.35-3.53 0-4.88c-1.35-1.34-3.53-1.34-4.88 0"/><path d="m107.14 59.61c2.87 0 4.55 1.69 4.55 4.08 0 1.62-.93 2.76-2.26 3.25 1.72.42 2.71 1.95 2.71 3.63 0 2.38-1.89 4.1-4.65 4.1h-5.27v-15.07h4.92zm-.23 6.59c1.68 0 2.68-.99 2.68-2.4s-1.04-2.36-2.76-2.36h-2.51v4.76h2.6zm.3 6.65c1.68 0 2.83-.93 2.83-2.41s-.92-2.46-2.74-2.46h-2.98v4.87z"/><path d="m114.78 78.94 2.55-5.4-4.4-9.1h2.29l3.19 7.06 3.06-7.06h2.14l-6.65 14.5h-2.19z"/><path d="m129.91 74.67v-15.07h2.13v15.07z"/><path d="m137.03 74.67h-2v-10.22h1.95v1.47c.74-1.27 1.95-1.76 3.15-1.76 2.45 0 3.66 1.76 3.66 4.04v6.48h-2v-6.14c0-1.43-.6-2.57-2.38-2.57-1.57 0-2.38 1.25-2.38 2.8v5.91h.01z"/><path d="m147.28 71.38c.13 1.06.93 1.91 2.38 1.91 1.12 0 1.75-.64 1.75-1.36 0-.64-.47-1.12-1.31-1.31l-1.75-.38c-1.59-.34-2.55-1.43-2.55-2.87 0-1.75 1.63-3.24 3.63-3.24 2.8 0 3.68 1.82 3.89 2.74l-1.76.66c-.09-.54-.51-1.69-2.13-1.69-1.02 0-1.69.66-1.69 1.36 0 .61.38 1.06 1.17 1.24l1.66.36c1.85.41 2.83 1.53 2.83 3.03s-1.21 3.17-3.75 3.17c-2.8 0-4-1.81-4.17-2.98l1.81-.64z"/><path d="m158.09 64.45h2.2v1.81h-2.2v5.31c0 .93.38 1.4 1.43 1.4.25 0 .61-.04.79-.09v1.69c-.17.06-.68.19-1.36.19-1.75 0-2.85-1.06-2.85-2.92v-5.61h-1.95v-1.81h.55c1.11 0 1.57-.68 1.57-1.57v-1.66h1.82v3.24h.01z"/><path d="m167.71 66.46c-.29-.04-.6-.06-.87-.06-1.68 0-2.8.89-2.8 3.15v5.12h-2v-10.22h1.95v1.78c.74-1.57 2.01-1.95 3.06-1.95.28 0 .55.04.66.06v2.13z"/><path d="m172.83 74.99c-2.38 0-3.82-1.78-3.82-4.1v-6.43h2v6.14c0 1.4.64 2.64 2.32 2.64s2.42-1.06 2.42-2.61v-6.17h2v8.33c0 .8.06 1.53.1 1.89h-1.91c-.04-.23-.09-.8-.09-1.24-.55 1.06-1.82 1.55-3.02 1.55z"/><path d="m181.71 69.55c0 2.33 1.47 3.59 3.12 3.59 1.91 0 2.61-1.3 2.85-2.1l1.76.76c-.48 1.47-1.95 3.19-4.61 3.19-2.97 0-5.16-2.33-5.16-5.44s2.23-5.41 5.15-5.41c2.71 0 4.13 1.69 4.55 3.25l-1.81.76c-.25-.99-.99-2.17-2.74-2.17-1.62 0-3.1 1.18-3.1 3.57z"/><path d="m193.94 64.45h2.2v1.81h-2.2v5.31c0 .93.38 1.4 1.43 1.4.25 0 .61-.04.79-.09v1.69c-.17.06-.68.19-1.36.19-1.75 0-2.85-1.06-2.85-2.92v-5.61h-1.95v-1.81h.55c1.11 0 1.57-.68 1.57-1.57v-1.66h1.82v3.24h.01z"/><path d="m201.61 74.99c-2.38 0-3.82-1.78-3.82-4.1v-6.43h2v6.14c0 1.4.64 2.64 2.32 2.64s2.42-1.06 2.42-2.61v-6.17h2v8.33c0 .8.06 1.53.1 1.89h-1.91c-.04-.23-.09-.8-.09-1.24-.55 1.06-1.82 1.55-3.02 1.55z"/><path d="m214.81 66.46c-.29-.04-.6-.06-.87-.06-1.68 0-2.8.89-2.8 3.15v5.12h-2v-10.22h1.95v1.78c.74-1.57 2.01-1.95 3.06-1.95.28 0 .55.04.66.06v2.13z"/><path d="m225.07 71.76c-.57 1.81-2.2 3.24-4.59 3.24-2.74 0-5.15-2-5.15-5.47 0-3.21 2.32-5.4 4.89-5.4 3.15 0 4.91 2.17 4.91 5.35 0 .25-.03.51-.04.64h-7.7c.04 1.82 1.36 3.1 3.08 3.1s2.48-.92 2.87-2.06l1.72.6zm-2.01-3.26c-.04-1.47-.99-2.61-2.8-2.61-1.68 0-2.7 1.3-2.79 2.61z"/><path d="m98.85 29.44c0-15.2 11.38-24.35 23.49-24.35s18.88 6.97 21 15.14l-7.44 2.5c-1.38-5.66-5.72-10.21-13.56-10.21s-15.4 5.59-15.4 16.91 7.5 16.72 15.47 16.72 12.31-5.01 13.89-10.27l7.24 2.37c-2.1 7.9-9.21 15.47-21.12 15.47-12.56 0-23.56-9.08-23.56-24.28z"/><path d="m161.25 53.58c-9.42 0-15.47-7.44-15.47-17.05s6.12-16.78 15.33-16.78c5.66 0 8.55 2.96 9.42 5.13v-4.22h7.44v26.19c0 2.64.27 5.2.33 5.86h-7.3c-.13-.73-.33-2.43-.33-4.61-1.45 3.1-4.8 5.47-9.42 5.47zm.86-6.57c5.01 0 8.49-4.28 8.49-10.46s-3.43-10.13-8.49-10.13-8.69 3.95-8.69 10.13 3.35 10.46 8.69 10.46z"/><path d="m192.85 52.73h-7.63v-32.04h7.44v4.28c2.1-3.68 5.92-5.2 9.48-5.2 7.84 0 11.58 5.66 11.58 12.7v20.27h-7.63v-18.95c0-3.95-1.77-7.11-6.59-7.11-4.34 0-6.65 3.35-6.65 7.57v18.49z"/><path d="m236.18 52.73h-7.63l-13.03-32.04h8.42l8.49 22.89 8.29-22.89h8.03l-12.56 32.04z"/><path d="m264.19 53.58c-9.42 0-15.47-7.44-15.47-17.05s6.12-16.78 15.33-16.78c5.66 0 8.55 2.96 9.42 5.13v-4.22h7.44v26.19c0 2.64.27 5.2.33 5.86h-7.3c-.13-.73-.33-2.43-.33-4.61-1.45 3.1-4.8 5.47-9.42 5.47zm.86-6.57c5.01 0 8.49-4.28 8.49-10.46s-3.43-10.13-8.49-10.13-8.69 3.95-8.69 10.13 3.35 10.46 8.69 10.46z"/><path d="m291.56 42.21c.27 2.89 2.43 5.47 6.51 5.47 3.16 0 4.8-1.71 4.8-3.68 0-1.71-1.18-3.03-3.75-3.55l-4.74-1.06c-5.66-1.25-8.63-4.93-8.63-9.34 0-5.59 5.13-10.33 11.77-10.33 8.94 0 11.85 5.8 12.37 8.94l-6.45 1.85c-.27-1.85-1.64-4.8-5.92-4.8-2.7 0-4.61 1.71-4.61 3.68 0 1.71 1.25 2.96 3.22 3.35l4.87.99c6.05 1.31 9.21 5.01 9.21 9.73s-3.95 10.27-12.1 10.27c-9.28 0-12.83-6.05-13.22-9.67l6.65-1.85h.01z"/></g></svg>