<svg viewBox="0 0 271.71 271.8" xmlns="http://www.w3.org/2000/svg"><g fill="#fff"><path d="m39.42 135.61c-.02-19.83-14.81-36.54-34.49-38.97-6.58 25.56-6.58 52.37 0 77.92 19.68-2.42 34.47-19.12 34.49-38.95"/><path d="m62.24 123.28c-6.81 0-12.33 5.52-12.33 12.33s5.52 12.33 12.33 12.33 12.33-5.52 12.33-12.33c0-6.81-5.52-12.33-12.33-12.33z"/><path d="m232.29 135.61c.01 19.83 14.81 36.53 34.49 38.95 6.58-25.56 6.58-52.37 0-77.92-19.68 2.44-34.46 19.14-34.49 38.97"/><path d="m209.39 123.28c-6.81-.01-12.34 5.5-12.35 12.31s5.5 12.34 12.31 12.35 12.34-5.5 12.35-12.31c0 0 0-.01 0-.02 0-6.8-5.51-12.32-12.31-12.33"/><path d="m135.59 232.4c-19.82.02-36.52 14.8-38.95 34.46 25.56 6.58 52.37 6.58 77.92 0-2.43-19.68-19.14-34.46-38.97-34.46"/><path d="m135.61 197.23c-6.81-.01-12.34 5.5-12.35 12.31s5.5 12.34 12.31 12.35 12.34-5.5 12.35-12.31c0 0 0-.01 0-.02 0-6.8-5.51-12.32-12.31-12.33"/><path d="m135.61 39.4c19.82 0 36.53-14.79 38.95-34.46-25.56-6.58-52.37-6.58-77.92 0 2.44 19.67 19.15 34.45 38.97 34.46"/><path d="m135.61 49.93c-6.81-.01-12.34 5.5-12.35 12.31s5.5 12.34 12.31 12.35 12.34-5.5 12.35-12.31c0-.01 0-.03 0-.04 0-6.8-5.51-12.31-12.31-12.31z"/><path d="m203.92 203.92c-13.99 14.02-15.36 36.26-3.2 51.9 22.73-13.41 41.68-32.37 55.08-55.1-15.63-12.16-37.86-10.78-51.88 3.2"/><path d="m179.05 179.05c-4.81 4.81-4.81 12.62 0 17.43s12.62 4.81 17.43 0 4.81-12.62 0-17.43c-4.82-4.8-12.62-4.8-17.43 0"/><path d="m67.5 67.5c14.01-14 15.39-36.26 3.2-51.88-22.73 13.4-41.68 32.35-55.08 55.08 15.62 12.18 37.87 10.81 51.88-3.2"/><path d="m74.93 74.95c-4.81 4.81-4.81 12.62 0 17.43s12.62 4.81 17.43 0 4.81-12.62 0-17.43c-4.82-4.8-12.62-4.8-17.43 0"/><path d="m203.83 67.37c14.03 13.98 36.28 15.33 51.9 3.14-13.41-22.71-32.37-41.64-55.1-55.02-12.16 15.63-10.78 37.86 3.2 51.88"/><path d="m196.4 92.24c4.8-4.81 4.8-12.6 0-17.4-4.81-4.8-12.6-4.8-17.4 0-4.8 4.81-4.8 12.59 0 17.4s12.6 4.81 17.4 0z"/><path d="m67.43 203.77c-14.01-13.99-36.25-15.36-51.88-3.2 13.4 22.73 32.36 41.69 55.08 55.1 12.18-15.63 10.8-37.88-3.2-51.9"/><path d="m74.78 178.9c-4.81 4.81-4.81 12.62 0 17.43s12.62 4.81 17.43 0 4.81-12.62 0-17.43c-4.82-4.79-12.61-4.79-17.43 0"/></g></svg>