<svg viewBox="0 0 234.82 184.32" xmlns="http://www.w3.org/2000/svg"><path d="m87.44 42.17c0-6.17-4.6-11.37-10.71-12.12-2.05 7.94-2.05 16.28 0 24.23 6.11-.75 10.71-5.94 10.71-12.12" fill="#e60305"/><path d="m94.53 38.34c-2.12 0-3.84 1.71-3.84 3.84s1.71 3.84 3.84 3.84 3.84-1.71 3.84-3.84c0-2.12-1.71-3.84-3.84-3.84z" fill="#e60305"/><path d="m147.41 42.17c0 6.17 4.6 11.37 10.71 12.12 2.05-7.94 2.05-16.28 0-24.23-6.11.75-10.71 5.96-10.71 12.12" fill="#e60305"/><path d="m140.28 38.34c-2.12 0-3.84 1.71-3.84 3.82s1.71 3.84 3.82 3.84 3.84-1.71 3.84-3.82c0-2.11-1.71-3.84-3.82-3.84" fill="#e60305"/><path d="m117.33 72.27c-6.16 0-11.35 4.6-12.12 10.71 7.94 2.05 16.28 2.05 24.23 0-.75-6.11-5.96-10.71-12.12-10.71" fill="#e60305"/><path d="m117.35 61.32c-2.12 0-3.84 1.71-3.84 3.82s1.71 3.84 3.82 3.84 3.84-1.71 3.84-3.82c0-2.11-1.71-3.84-3.82-3.84" fill="#e60305"/><path d="m117.35 12.25c6.16 0 11.35-4.6 12.12-10.71-7.94-2.05-16.28-2.05-24.23 0 .76 6.11 5.96 10.71 12.12 10.71" fill="#e60305"/><path d="m117.35 15.54c-2.12 0-3.84 1.71-3.84 3.82s1.71 3.84 3.82 3.84 3.84-1.71 3.84-3.82c0-2.11-1.71-3.82-3.82-3.82" fill="#e60305"/><path d="m138.58 63.4c-4.35 4.36-4.77 11.28-.99 16.14 7.06-4.18 12.96-10.06 17.13-17.13-4.85-3.78-11.78-3.35-16.14.99" fill="#e60305"/><path d="m130.85 55.68c-1.5 1.5-1.5 3.92 0 5.42s3.92 1.5 5.42 0 1.5-3.92 0-5.42c-1.5-1.49-3.92-1.49-5.42 0" fill="#e60305"/><path d="m96.17 21c4.36-4.36 4.78-11.27.99-16.14-7.06 4.16-12.96 10.06-17.13 17.13 4.85 3.79 11.78 3.35 16.14-.99" fill="#e60305"/><path d="m98.48 23.31c-1.5 1.5-1.5 3.92 0 5.42s3.92 1.5 5.42 0 1.5-3.92 0-5.42c-1.5-1.49-3.92-1.49-5.42 0" fill="#e60305"/><path d="m138.55 20.96c4.36 4.35 11.28 4.77 16.14.98-4.18-7.06-10.06-12.95-17.13-17.11-3.78 4.85-3.35 11.78.99 16.14" fill="#e60305"/><path d="m136.24 28.69c1.5-1.5 1.49-3.92 0-5.41-1.5-1.5-3.92-1.49-5.41 0-1.49 1.5-1.49 3.92 0 5.41 1.5 1.5 3.92 1.5 5.41 0z" fill="#e60305"/><path d="m96.15 63.36c-4.36-4.35-11.27-4.77-16.14-.99 4.16 7.06 10.06 12.96 17.13 17.13 3.78-4.85 3.35-11.78-.99-16.14" fill="#e60305"/><path d="m98.44 55.63c-1.5 1.5-1.5 3.92 0 5.42s3.92 1.5 5.42 0 1.5-3.92 0-5.42c-1.5-1.49-3.92-1.49-5.42 0" fill="#e60305"/><g fill="#0b1722"><path d="m54.6 162.85c3.18 0 5.05 1.88 5.05 4.53 0 1.8-1.03 3.07-2.51 3.61 1.91.47 3.01 2.17 3.01 4.03 0 2.65-2.09 4.56-5.17 4.56h-5.86v-16.74h5.46zm-.25 7.32c1.87 0 2.97-1.1 2.97-2.66s-1.16-2.62-3.07-2.62h-2.79v5.29h2.89zm.33 7.38c1.87 0 3.14-1.03 3.14-2.68s-1.02-2.73-3.04-2.73h-3.31v5.41z"/><path d="m63.08 184.32 2.83-6-4.88-10.11h2.55l3.54 7.84 3.4-7.84h2.38l-7.39 16.11h-2.43.01z"/><path d="m79.91 179.58v-16.74h2.36v16.74z"/><path d="m87.81 179.58h-2.22v-11.35h2.17v1.63c.82-1.42 2.17-1.95 3.5-1.95 2.72 0 4.06 1.95 4.06 4.49v7.2h-2.22v-6.82c0-1.59-.67-2.86-2.65-2.86-1.74 0-2.65 1.39-2.65 3.11v6.57h.01z"/><path d="m99.19 175.93c.14 1.17 1.03 2.12 2.65 2.12 1.25 0 1.94-.71 1.94-1.51 0-.71-.52-1.25-1.46-1.46l-1.94-.42c-1.77-.38-2.83-1.59-2.83-3.18 0-1.94 1.81-3.6 4.03-3.6 3.11 0 4.09 2.02 4.32 3.04l-1.95.74c-.1-.59-.57-1.88-2.36-1.88-1.13 0-1.88.74-1.88 1.51 0 .68.42 1.17 1.3 1.37l1.84.4c2.05.45 3.14 1.7 3.14 3.37s-1.34 3.52-4.16 3.52c-3.11 0-4.44-2.01-4.63-3.31l2.01-.71h-.01z"/><path d="m111.21 168.23h2.45v2.01h-2.45v5.9c0 1.03.42 1.56 1.59 1.56.28 0 .68-.04.88-.1v1.88c-.18.07-.75.21-1.51.21-1.94 0-3.17-1.17-3.17-3.24v-6.23h-2.17v-2.01h.61c1.23 0 1.74-.75 1.74-1.74v-1.84h2.02v3.6z"/><path d="m121.89 170.46c-.33-.04-.67-.07-.96-.07-1.87 0-3.11.99-3.11 3.5v5.69h-2.22v-11.35h2.17v1.98c.82-1.74 2.24-2.17 3.4-2.17.31 0 .61.04.74.07v2.36z"/><path d="m127.58 179.93c-2.65 0-4.25-1.98-4.25-4.56v-7.15h2.22v6.82c0 1.56.71 2.93 2.58 2.93s2.69-1.17 2.69-2.9v-6.85h2.22v9.26c0 .89.07 1.7.11 2.09h-2.12c-.04-.25-.1-.89-.1-1.37-.61 1.17-2.02 1.73-3.35 1.73z"/><path d="m137.45 173.89c0 2.59 1.63 3.99 3.47 3.99 2.12 0 2.9-1.44 3.17-2.34l1.95.85c-.54 1.63-2.17 3.54-5.12 3.54-3.3 0-5.73-2.59-5.73-6.04s2.48-6.02 5.72-6.02c3.01 0 4.59 1.88 5.05 3.61l-2.01.85c-.28-1.1-1.1-2.41-3.04-2.41-1.8 0-3.44 1.32-3.44 3.96h-.01z"/><path d="m151.03 168.23h2.45v2.01h-2.45v5.9c0 1.03.42 1.56 1.59 1.56.28 0 .68-.04.88-.1v1.88c-.18.07-.75.21-1.51.21-1.94 0-3.17-1.17-3.17-3.24v-6.23h-2.17v-2.01h.61c1.23 0 1.74-.75 1.74-1.74v-1.84h2.02v3.6z"/><path d="m159.55 179.93c-2.65 0-4.25-1.98-4.25-4.56v-7.15h2.22v6.82c0 1.56.71 2.93 2.58 2.93s2.69-1.17 2.69-2.9v-6.85h2.22v9.26c0 .89.07 1.7.11 2.09h-2.12c-.04-.25-.1-.89-.1-1.37-.61 1.17-2.02 1.73-3.35 1.73z"/><path d="m174.22 170.46c-.33-.04-.67-.07-.96-.07-1.87 0-3.11.99-3.11 3.5v5.69h-2.22v-11.35h2.17v1.98c.82-1.74 2.24-2.17 3.4-2.17.31 0 .61.04.74.07v2.36z"/><path d="m185.61 176.35c-.64 2.01-2.45 3.6-5.1 3.6-3.04 0-5.72-2.22-5.72-6.07 0-3.57 2.58-6 5.44-6 3.5 0 5.45 2.41 5.45 5.94 0 .28-.03.57-.04.71h-8.55c.04 2.02 1.51 3.44 3.43 3.44s2.76-1.02 3.18-2.29zm-2.24-3.62c-.04-1.63-1.1-2.9-3.11-2.9-1.87 0-3 1.44-3.1 2.9z"/><path d="m0 129.33c0-16.88 12.64-27.04 26.1-27.04s20.98 7.74 23.33 16.81l-8.27 2.77c-1.53-6.28-6.35-11.34-15.06-11.34s-17.11 6.21-17.11 18.78 8.34 18.57 17.18 18.57 13.67-5.56 15.43-11.41l8.04 2.63c-2.34 8.78-10.23 17.18-23.47 17.18-13.96 0-26.17-10.09-26.17-26.98z"/><path d="m69.31 156.15c-10.46 0-17.18-8.27-17.18-18.94s6.79-18.64 17.03-18.64c6.28 0 9.5 3.28 10.46 5.7v-4.68h8.27v29.1c0 2.93.3 5.77.37 6.51h-8.11c-.14-.81-.37-2.7-.37-5.12-1.61 3.44-5.34 6.07-10.46 6.07zm.95-7.3c5.56 0 9.43-4.76 9.43-11.62s-3.81-11.25-9.43-11.25-9.65 4.39-9.65 11.25 3.72 11.62 9.65 11.62z"/><path d="m104.41 155.21h-8.48v-35.6h8.27v4.76c2.34-4.09 6.58-5.77 10.53-5.77 8.7 0 12.87 6.28 12.87 14.11v22.52h-8.48v-21.05c0-4.39-1.97-7.9-7.32-7.9-4.83 0-7.39 3.72-7.39 8.41v20.54z"/><path d="m152.55 155.21h-8.48l-14.48-35.6h9.36l9.43 25.43 9.21-25.43h8.92z"/><path d="m183.69 156.15c-10.46 0-17.18-8.27-17.18-18.94s6.79-18.64 17.03-18.64c6.28 0 9.5 3.28 10.46 5.7v-4.68h8.27v29.1c0 2.93.3 5.77.37 6.51h-8.11c-.14-.81-.37-2.7-.37-5.12-1.61 3.44-5.34 6.07-10.46 6.07zm.94-7.3c5.56 0 9.43-4.76 9.43-11.62s-3.81-11.25-9.43-11.25-9.65 4.39-9.65 11.25 3.72 11.62 9.65 11.62z"/><path d="m214.09 143.51c.3 3.21 2.7 6.07 7.23 6.07 3.51 0 5.34-1.9 5.34-4.09 0-1.9-1.32-3.37-4.16-3.95l-5.27-1.17c-6.28-1.39-9.58-5.48-9.58-10.37 0-6.21 5.7-11.48 13.08-11.48 9.94 0 13.16 6.44 13.74 9.94l-7.16 2.05c-.3-2.05-1.83-5.34-6.58-5.34-3 0-5.12 1.9-5.12 4.09 0 1.9 1.39 3.28 3.58 3.72l5.41 1.1c6.72 1.46 10.23 5.56 10.23 10.81s-4.39 11.41-13.45 11.41c-10.3 0-14.25-6.72-14.69-10.74l7.39-2.05z"/></g></svg>