<svg viewBox="0 0 184.83 145.08" xmlns="http://www.w3.org/2000/svg"><g fill="#e60305"><path d="m68.83 33.2c0-4.86-3.62-8.95-8.43-9.54-1.62 6.25-1.62 12.81 0 19.07 4.81-.59 8.43-4.68 8.43-9.54"/><path d="m74.41 30.18c-1.67 0-3.02 1.35-3.02 3.02s1.35 3.02 3.02 3.02 3.02-1.35 3.02-3.02c0-1.67-1.35-3.02-3.02-3.02z"/><path d="m116.03 33.2c0 4.86 3.62 8.95 8.43 9.54 1.62-6.25 1.62-12.81 0-19.07-4.81.59-8.43 4.69-8.43 9.54"/><path d="m110.41 30.18c-1.67 0-3.02 1.35-3.02 3.01s1.35 3.02 3.01 3.02 3.02-1.35 3.02-3.01c0-1.66-1.35-3.02-3.01-3.02"/><path d="m92.36 56.88c-4.85 0-8.93 3.62-9.54 8.43 6.25 1.62 12.81 1.62 19.07 0-.59-4.81-4.69-8.43-9.54-8.43"/><path d="m92.37 48.27c-1.67 0-3.02 1.35-3.02 3.01s1.35 3.02 3.01 3.02 3.02-1.35 3.02-3.01c0-1.66-1.35-3.02-3.01-3.02"/><path d="m92.37 9.64c4.85 0 8.93-3.62 9.54-8.43-6.25-1.62-12.81-1.62-19.07 0 .6 4.81 4.69 8.43 9.54 8.43"/><path d="m92.37 12.23c-1.67 0-3.02 1.35-3.02 3.01s1.35 3.02 3.01 3.02 3.02-1.35 3.02-3.01c0-1.66-1.35-3.01-3.01-3.01"/><path d="m109.08 49.91c-3.42 3.43-3.75 8.88-.78 12.7 5.56-3.29 10.2-7.92 13.48-13.48-3.82-2.97-9.27-2.64-12.7.78"/><path d="m102.99 43.82c-1.18 1.18-1.18 3.09 0 4.27s3.09 1.18 4.27 0 1.18-3.09 0-4.27c-1.18-1.17-3.09-1.17-4.27 0"/><path d="m75.7 16.53c3.43-3.43 3.77-8.87.78-12.7-5.56 3.28-10.2 7.92-13.48 13.48 3.82 2.99 9.27 2.64 12.7-.78"/><path d="m77.52 18.35c-1.18 1.18-1.18 3.09 0 4.27s3.09 1.18 4.27 0 1.18-3.09 0-4.27c-1.18-1.17-3.09-1.17-4.27 0"/><path d="m109.06 16.5c3.43 3.42 8.88 3.75 12.7.77-3.29-5.56-7.92-10.19-13.48-13.47-2.97 3.82-2.64 9.27.78 12.7"/><path d="m107.24 22.58c1.18-1.18 1.17-3.09 0-4.26-1.18-1.18-3.09-1.17-4.26 0-1.17 1.18-1.17 3.09 0 4.26 1.18 1.18 3.09 1.18 4.26 0z"/><path d="m75.68 49.87c-3.43-3.42-8.87-3.75-12.7-.78 3.28 5.56 7.92 10.2 13.48 13.48 2.97-3.82 2.64-9.27-.78-12.7"/><path d="m77.48 43.79c-1.18 1.18-1.18 3.09 0 4.27s3.09 1.18 4.27 0 1.18-3.09 0-4.27c-1.18-1.17-3.09-1.17-4.27 0"/><path d="m42.98 128.18c2.51 0 3.98 1.48 3.98 3.56 0 1.41-.81 2.42-1.97 2.84 1.5.37 2.37 1.7 2.37 3.18 0 2.08-1.65 3.59-4.07 3.59h-4.61v-13.18h4.3zm-.2 5.76c1.47 0 2.34-.87 2.34-2.09s-.91-2.06-2.42-2.06h-2.19v4.17h2.27zm.26 5.82c1.47 0 2.47-.81 2.47-2.11s-.8-2.15-2.4-2.15h-2.61v4.26h2.53z"/><path d="m49.65 145.08 2.23-4.72-3.84-7.95h2.01l2.79 6.17 2.67-6.17h1.87l-5.82 12.68h-1.92.01z"/><path d="m62.9 141.35v-13.18h1.86v13.18z"/><path d="m69.12 141.35h-1.75v-8.93h1.7v1.28c.65-1.11 1.7-1.54 2.75-1.54 2.14 0 3.2 1.54 3.2 3.53v5.67h-1.75v-5.37c0-1.25-.52-2.25-2.08-2.25-1.37 0-2.08 1.09-2.08 2.45v5.17h.01z"/><path d="m78.07 138.47c.11.92.81 1.67 2.08 1.67.98 0 1.53-.56 1.53-1.19 0-.56-.41-.98-1.15-1.15l-1.53-.33c-1.39-.3-2.23-1.25-2.23-2.51 0-1.53 1.43-2.83 3.18-2.83 2.45 0 3.22 1.59 3.4 2.4l-1.54.58c-.08-.47-.45-1.48-1.86-1.48-.89 0-1.48.58-1.48 1.19 0 .53.33.92 1.02 1.08l1.45.31c1.62.36 2.47 1.34 2.47 2.65s-1.06 2.77-3.28 2.77c-2.45 0-3.5-1.58-3.64-2.61l1.58-.56h-.01z"/><path d="m87.53 132.41h1.93v1.58h-1.93v4.65c0 .81.33 1.23 1.25 1.23.22 0 .53-.03.69-.08v1.48c-.14.06-.59.17-1.19.17-1.53 0-2.5-.92-2.5-2.55v-4.9h-1.7v-1.58h.48c.97 0 1.37-.59 1.37-1.37v-1.45h1.59v2.83h.01z"/><path d="m95.94 134.17c-.26-.03-.52-.06-.76-.06-1.47 0-2.45.78-2.45 2.75v4.48h-1.75v-8.93h1.7v1.56c.65-1.37 1.76-1.7 2.67-1.7.25 0 .48.03.58.06v1.86z"/><path d="m100.42 141.63c-2.08 0-3.34-1.56-3.34-3.59v-5.63h1.75v5.37c0 1.23.56 2.31 2.03 2.31s2.12-.92 2.12-2.28v-5.39h1.75v7.29c0 .7.06 1.34.09 1.65h-1.67c-.03-.2-.08-.7-.08-1.08-.48.92-1.59 1.36-2.64 1.36z"/><path d="m108.19 136.87c0 2.04 1.28 3.14 2.73 3.14 1.67 0 2.28-1.14 2.5-1.84l1.54.67c-.42 1.28-1.7 2.79-4.03 2.79-2.6 0-4.51-2.04-4.51-4.76s1.95-4.73 4.5-4.73c2.37 0 3.61 1.48 3.98 2.84l-1.58.67c-.22-.87-.87-1.89-2.4-1.89-1.41 0-2.71 1.04-2.71 3.12h-.01z"/><path d="m118.88 132.41h1.93v1.58h-1.93v4.65c0 .81.33 1.23 1.25 1.23.22 0 .53-.03.69-.08v1.48c-.14.06-.59.17-1.19.17-1.53 0-2.5-.92-2.5-2.55v-4.9h-1.7v-1.58h.48c.97 0 1.37-.59 1.37-1.37v-1.45h1.59v2.83h.01z"/><path d="m125.59 141.63c-2.08 0-3.34-1.56-3.34-3.59v-5.63h1.75v5.37c0 1.23.56 2.31 2.03 2.31s2.12-.92 2.12-2.28v-5.39h1.75v7.29c0 .7.06 1.34.09 1.65h-1.67c-.03-.2-.08-.7-.08-1.08-.48.92-1.59 1.36-2.64 1.36z"/><path d="m137.13 134.17c-.26-.03-.52-.06-.76-.06-1.47 0-2.45.78-2.45 2.75v4.48h-1.75v-8.93h1.7v1.56c.65-1.37 1.76-1.7 2.67-1.7.25 0 .48.03.58.06v1.86z"/><path d="m146.1 138.81c-.5 1.58-1.93 2.83-4.01 2.83-2.4 0-4.5-1.75-4.5-4.78 0-2.81 2.03-4.72 4.28-4.72 2.75 0 4.29 1.89 4.29 4.68 0 .22-.02.45-.03.56h-6.73c.03 1.59 1.19 2.71 2.7 2.71s2.17-.8 2.51-1.8l1.5.52zm-1.76-2.85c-.03-1.28-.87-2.28-2.45-2.28-1.47 0-2.36 1.14-2.44 2.28z"/><path d="m0 101.8c0-13.29 9.95-21.29 20.54-21.29s16.51 6.09 18.36 13.23l-6.51 2.18c-1.2-4.95-5-8.92-11.85-8.92s-13.47 4.89-13.47 14.78 6.56 14.62 13.52 14.62 10.76-4.38 12.14-8.98l6.33 2.07c-1.84 6.91-8.05 13.52-18.47 13.52-10.98 0-20.6-7.94-20.6-21.23z"/><path d="m54.56 122.91c-8.23 0-13.52-6.51-13.52-14.91s5.35-14.67 13.4-14.67c4.95 0 7.48 2.58 8.23 4.49v-3.69h6.51v22.91c0 2.31.23 4.55.29 5.12h-6.38c-.11-.64-.29-2.13-.29-4.03-1.27 2.71-4.2 4.78-8.23 4.78zm.74-5.75c4.38 0 7.42-3.74 7.42-9.15s-3-8.86-7.42-8.86-7.6 3.45-7.6 8.86 2.93 9.15 7.6 9.15z"/><path d="m82.18 122.16h-6.67v-28.02h6.51v3.74c1.84-3.22 5.18-4.55 8.29-4.55 6.85 0 10.13 4.95 10.13 11.11v17.72h-6.67v-16.57c0-3.45-1.55-6.22-5.76-6.22-3.8 0-5.82 2.93-5.82 6.62v16.16z"/><path d="m120.07 122.16h-6.67l-11.4-28.02h7.36l7.42 20.02 7.25-20.02h7.02s-10.98 28.02-10.98 28.02z"/><path d="m144.58 122.91c-8.23 0-13.52-6.51-13.52-14.91s5.35-14.67 13.4-14.67c4.95 0 7.48 2.58 8.23 4.49v-3.69h6.51v22.91c0 2.31.23 4.55.29 5.12h-6.38c-.11-.64-.29-2.13-.29-4.03-1.27 2.71-4.2 4.78-8.23 4.78zm.75-5.75c4.38 0 7.42-3.74 7.42-9.15s-3-8.86-7.42-8.86-7.6 3.45-7.6 8.86 2.93 9.15 7.6 9.15z"/><path d="m168.51 112.96c.23 2.53 2.13 4.78 5.69 4.78 2.76 0 4.2-1.49 4.2-3.22 0-1.49-1.04-2.65-3.28-3.11l-4.14-.92c-4.95-1.09-7.54-4.31-7.54-8.17 0-4.89 4.49-9.03 10.29-9.03 7.82 0 10.36 5.07 10.82 7.82l-5.64 1.62c-.23-1.62-1.44-4.2-5.18-4.2-2.36 0-4.03 1.49-4.03 3.22 0 1.49 1.09 2.58 2.82 2.93l4.26.87c5.29 1.15 8.05 4.38 8.05 8.51s-3.45 8.98-10.58 8.98c-8.11 0-11.22-5.29-11.56-8.46l5.82-1.62h.01z"/></g></svg>