<svg viewBox="0 0 731.71 155.79" xmlns="http://www.w3.org/2000/svg"><g fill="#fff"><path d="m65.17 0 17.6 47.56 47.56 17.6-47.56 17.6-17.6 47.56-17.6-47.56-47.57-17.59 47.56-17.6z"/><path d="m108.61 0 5.87 15.85 15.85 5.87-15.85 5.87-5.87 15.85-5.87-15.85-15.85-5.87 15.85-5.87 5.87-15.85z"/><path d="m200.66 125.99h-22.29v-119.36h22.29zm51.72-44.41c2.53 0 4.73-.33 6.6-.99 1.87-.72 3.41-1.68 4.62-2.89 1.27-1.21 2.2-2.67 2.81-4.37.66-1.71.99-3.58.99-5.61 0-4.18-1.27-7.48-3.8-9.91-2.48-2.48-6.22-3.71-11.23-3.71s-8.78 1.24-11.31 3.71c-2.48 2.42-3.71 5.72-3.71 9.91 0 1.98.3 3.82.91 5.53.66 1.71 1.6 3.19 2.81 4.46 1.27 1.21 2.83 2.17 4.7 2.89 1.93.66 4.13.99 6.6.99zm23.03 48.2c0-1.65-.5-3-1.49-4.04-.99-1.05-2.34-1.84-4.04-2.39-1.71-.61-3.71-1.05-6.03-1.32-2.26-.28-4.68-.47-7.26-.58-2.53-.17-5.17-.3-7.92-.41-2.7-.11-5.34-.33-7.92-.66-2.26 1.27-4.1 2.75-5.53 4.46-1.38 1.71-2.06 3.69-2.06 5.94 0 1.49.36 2.86 1.07 4.13.77 1.32 1.95 2.45 3.55 3.38 1.65.94 3.77 1.65 6.36 2.15 2.59.55 5.75.83 9.49.83s7.07-.3 9.82-.91c2.75-.55 5.01-1.35 6.77-2.39 1.82-.99 3.14-2.2 3.96-3.63.83-1.38 1.24-2.89 1.24-4.54zm20.3-85.59v7.59c0 2.42-1.46 3.91-4.37 4.46l-7.59 1.4c1.16 2.92 1.73 6.11 1.73 9.58 0 4.18-.85 7.98-2.56 11.39-1.65 3.36-3.96 6.22-6.93 8.58-2.97 2.37-6.49 4.21-10.57 5.53-4.02 1.27-8.36 1.9-13.04 1.9-1.65 0-3.25-.08-4.79-.25s-3.05-.39-4.54-.66c-2.64 1.6-3.96 3.38-3.96 5.37 0 1.71.77 2.97 2.31 3.8 1.6.77 3.69 1.32 6.27 1.65 2.59.33 5.53.55 8.83.66 3.3.06 6.69.22 10.15.5 3.47.28 6.85.77 10.15 1.49 3.3.66 6.25 1.73 8.83 3.22 2.59 1.49 4.65 3.52 6.19 6.11 1.6 2.53 2.39 5.81 2.39 9.82 0 3.74-.94 7.37-2.81 10.9-1.82 3.52-4.48 6.66-8.01 9.41-3.47 2.75-7.76 4.95-12.88 6.6-5.06 1.71-10.84 2.56-17.33 2.56s-11.94-.63-16.67-1.9c-4.73-1.21-8.67-2.86-11.8-4.95-3.14-2.04-5.48-4.4-7.02-7.1s-2.31-5.5-2.31-8.42c0-3.96 1.18-7.26 3.55-9.91 2.42-2.7 5.72-4.84 9.91-6.44-2.26-1.16-4.04-2.7-5.37-4.62-1.32-1.93-1.98-4.46-1.98-7.59 0-1.27.22-2.56.66-3.88.5-1.38 1.18-2.72 2.06-4.04.94-1.32 2.09-2.56 3.47-3.71 1.38-1.21 3-2.28 4.87-3.22-4.29-2.31-7.68-5.39-10.15-9.24-2.42-3.85-3.63-8.36-3.63-13.54 0-4.18.83-7.95 2.48-11.31 1.71-3.41 4.04-6.3 7.02-8.67 3.03-2.42 6.58-4.26 10.65-5.53 4.13-1.27 8.61-1.9 13.45-1.9 3.63 0 7.04.39 10.24 1.16 3.19.72 6.11 1.79 8.75 3.22h24.35zm32 7.51c1.71-1.71 3.49-3.27 5.37-4.7 1.93-1.49 3.93-2.72 6.03-3.71 2.15-1.05 4.43-1.84 6.85-2.39 2.42-.61 5.06-.91 7.92-.91 4.62 0 8.72.8 12.3 2.39 3.58 1.54 6.55 3.74 8.91 6.6 2.42 2.81 4.24 6.19 5.45 10.15 1.27 3.91 1.9 8.23 1.9 12.96v53.9h-20.39v-53.9c0-5.17-1.18-9.16-3.55-11.97-2.37-2.86-5.97-4.29-10.81-4.29-3.52 0-6.82.8-9.91 2.39-3.08 1.6-6 3.77-8.75 6.52v61.25h-20.39v-84.69h12.46c2.64 0 4.37 1.24 5.2 3.71l1.4 6.69zm95.25-10.4v84.69h-20.47v-84.69zm2.81-24.68c0 1.76-.36 3.41-1.07 4.95-.72 1.54-1.68 2.89-2.89 4.04-1.16 1.16-2.53 2.09-4.13 2.81-1.6.66-3.3.99-5.12.99s-3.44-.33-5.04-.99c-1.54-.72-2.89-1.65-4.04-2.81-1.16-1.16-2.09-2.5-2.81-4.04-.66-1.54-.99-3.19-.99-4.95s.33-3.52.99-5.12c.72-1.6 1.65-2.97 2.81-4.13s2.5-2.06 4.04-2.72c1.6-.72 3.27-1.07 5.04-1.07s3.52.36 5.12 1.07c1.6.66 2.97 1.57 4.13 2.72 1.21 1.16 2.17 2.53 2.89 4.13s1.07 3.3 1.07 5.12zm46.2 110.69c-7.37 0-13.04-2.06-17-6.19-3.91-4.18-5.86-9.93-5.86-17.25v-47.3h-8.67c-1.1 0-2.03-.36-2.81-1.07-.77-.72-1.16-1.79-1.16-3.22v-8.09l13.62-2.23 4.29-23.11c.28-1.1.8-1.95 1.57-2.56s1.76-.91 2.97-.91h10.57v26.66h22.62v14.53h-22.62v45.89c0 2.64.63 4.7 1.9 6.19 1.32 1.49 3.11 2.23 5.37 2.23 1.27 0 2.31-.14 3.14-.41.88-.33 1.62-.66 2.23-.99.66-.33 1.24-.63 1.73-.91.5-.33.99-.5 1.49-.5.61 0 1.1.17 1.49.5.39.27.8.72 1.24 1.32l6.11 9.91c-2.97 2.48-6.38 4.35-10.24 5.61-3.85 1.27-7.84 1.9-11.97 1.9zm87.11-53.41c0-2.64-.38-5.12-1.16-7.43-.71-2.37-1.82-4.43-3.3-6.19-1.49-1.76-3.38-3.14-5.7-4.13-2.25-1.05-4.9-1.57-7.92-1.57-5.89 0-10.54 1.68-13.95 5.04-3.35 3.36-5.5 8.12-6.44 14.28zm-38.88 12.3c.33 4.35 1.1 8.12 2.31 11.31 1.21 3.14 2.81 5.75 4.79 7.84 1.98 2.04 4.32 3.58 7.02 4.62 2.75.99 5.78 1.49 9.08 1.49s6.14-.39 8.5-1.16c2.42-.77 4.51-1.62 6.27-2.56 1.82-.94 3.38-1.79 4.7-2.56 1.38-.77 2.7-1.16 3.96-1.16 1.71 0 2.97.63 3.8 1.9l5.86 7.43c-2.25 2.64-4.79 4.87-7.59 6.69-2.81 1.76-5.75 3.19-8.83 4.29-3.02 1.05-6.13 1.79-9.33 2.23-3.14.44-6.19.66-9.16.66-5.89 0-11.36-.96-16.43-2.89-5.06-1.98-9.46-4.87-13.21-8.67-3.74-3.85-6.69-8.58-8.83-14.2-2.15-5.67-3.22-12.22-3.22-19.65 0-5.78.94-11.2 2.81-16.26 1.87-5.12 4.54-9.55 8.01-13.29 3.52-3.8 7.79-6.8 12.79-9 5.07-2.2 10.76-3.3 17.09-3.3 5.34 0 10.27.85 14.78 2.56s8.39 4.21 11.64 7.51c3.25 3.25 5.78 7.26 7.59 12.05 1.87 4.73 2.81 10.15 2.81 16.26 0 3.08-.33 5.17-.99 6.27-.66 1.05-1.92 1.57-3.8 1.57h-52.41zm137.66-5.28-14.53-39.7c-.72-1.76-1.46-3.85-2.23-6.27s-1.54-5.04-2.31-7.84c-.72 2.81-1.46 5.45-2.23 7.92-.77 2.42-1.52 4.54-2.23 6.36l-14.45 39.54h37.97zm39.21 45.07h-17.17c-1.93 0-3.5-.47-4.7-1.4-1.21-.99-2.12-2.2-2.72-3.63l-8.91-24.35h-49.44l-8.91 24.35c-.44 1.27-1.29 2.42-2.56 3.47s-2.84 1.57-4.7 1.57h-17.33l46.97-119.36h22.62l46.88 119.36zm34.64 0h-22.29v-119.36h22.29z"/></g></svg>