<svg viewBox="0 0 713.39 151.88" xmlns="http://www.w3.org/2000/svg"><g fill="#0b1722"><path d="m63.53 0 17.16 46.37 46.37 17.16-46.37 17.16-17.16 46.37-17.16-46.37-46.37-17.16 46.37-17.16z"/><path d="m105.89 0 5.72 15.46 15.46 5.72-15.46 5.72-5.72 15.46-5.72-15.46-15.46-5.72 15.46-5.72z"/><path d="m195.64 122.83h-21.73v-116.37h21.73zm50.42-43.29c2.47 0 4.61-.32 6.44-.97 1.82-.7 3.33-1.64 4.51-2.82 1.23-1.18 2.15-2.6 2.74-4.27.64-1.66.97-3.49.97-5.47 0-4.08-1.23-7.3-3.7-9.66-2.41-2.41-6.06-3.62-10.94-3.62s-8.56 1.21-11.03 3.62c-2.41 2.36-3.62 5.58-3.62 9.66 0 1.93.3 3.73.89 5.39.64 1.66 1.56 3.11 2.74 4.35 1.23 1.18 2.76 2.12 4.59 2.82 1.88.64 4.02.97 6.44.97zm22.45 46.99c0-1.61-.48-2.92-1.45-3.94s-2.28-1.8-3.94-2.33c-1.66-.59-3.62-1.02-5.87-1.29-2.2-.27-4.56-.46-7.08-.56-2.47-.16-5.04-.3-7.73-.4-2.63-.11-5.2-.32-7.73-.64-2.2 1.23-4 2.68-5.39 4.35-1.34 1.66-2.01 3.59-2.01 5.79 0 1.45.35 2.79 1.05 4.02.75 1.29 1.9 2.39 3.46 3.3 1.61.91 3.68 1.61 6.2 2.09 2.52.54 5.61.8 9.25.8s6.89-.3 9.58-.89c2.68-.54 4.88-1.31 6.6-2.33 1.77-.97 3.06-2.15 3.86-3.54.8-1.34 1.21-2.82 1.21-4.43zm19.8-83.45v7.4c0 2.36-1.42 3.81-4.27 4.35l-7.4 1.37c1.13 2.84 1.69 5.96 1.69 9.34 0 4.08-.83 7.78-2.49 11.11-1.61 3.27-3.86 6.06-6.76 8.37s-6.33 4.1-10.3 5.39c-3.92 1.23-8.15 1.85-12.72 1.85-1.61 0-3.17-.08-4.67-.24s-2.98-.38-4.43-.64c-2.58 1.56-3.86 3.3-3.86 5.23 0 1.66.75 2.9 2.25 3.7 1.56.75 3.59 1.29 6.12 1.61 2.52.32 5.39.54 8.61.64 3.22.05 6.52.21 9.9.48s6.68.75 9.9 1.45c3.22.64 6.09 1.69 8.61 3.14s4.53 3.43 6.04 5.96c1.56 2.47 2.33 5.66 2.33 9.58 0 3.65-.91 7.19-2.74 10.62-1.77 3.43-4.37 6.49-7.81 9.17-3.38 2.68-7.56 4.83-12.55 6.44-4.94 1.66-10.57 2.49-16.9 2.49s-11.64-.62-16.26-1.85c-4.61-1.18-8.45-2.79-11.51-4.83-3.06-1.99-5.34-4.29-6.84-6.92s-2.25-5.37-2.25-8.21c0-3.86 1.15-7.08 3.46-9.66 2.36-2.63 5.58-4.72 9.66-6.28-2.2-1.13-3.94-2.63-5.23-4.51s-1.93-4.35-1.93-7.4c0-1.23.21-2.49.64-3.78.48-1.34 1.15-2.66 2.01-3.94.91-1.29 2.04-2.49 3.38-3.62 1.34-1.18 2.92-2.23 4.75-3.14-4.18-2.25-7.48-5.26-9.9-9.01-2.36-3.76-3.54-8.15-3.54-13.2 0-4.08.8-7.75 2.41-11.03 1.66-3.33 3.94-6.14 6.84-8.45 2.95-2.36 6.41-4.16 10.38-5.39 4.02-1.23 8.4-1.85 13.12-1.85 3.54 0 6.87.38 9.98 1.13 3.11.7 5.96 1.74 8.53 3.14h23.74zm31.2 7.32c1.66-1.66 3.41-3.19 5.23-4.59 1.88-1.45 3.84-2.66 5.87-3.62 2.09-1.02 4.32-1.8 6.68-2.33 2.36-.59 4.94-.89 7.73-.89 4.51 0 8.5.78 11.99 2.33 3.49 1.5 6.38 3.65 8.69 6.44 2.36 2.74 4.13 6.04 5.31 9.9 1.23 3.81 1.85 8.02 1.85 12.63v52.55h-19.88v-52.55c0-5.04-1.15-8.93-3.46-11.67-2.31-2.79-5.82-4.18-10.54-4.18-3.43 0-6.65.78-9.66 2.33-3 1.56-5.85 3.68-8.53 6.36v59.71h-19.88v-82.56h12.15c2.58 0 4.27 1.21 5.07 3.62l1.37 6.52zm92.86-10.14v82.57h-19.96v-82.57zm2.73-24.06c0 1.72-.35 3.33-1.05 4.83s-1.64 2.82-2.82 3.94c-1.13 1.13-2.47 2.04-4.02 2.74-1.56.64-3.22.97-4.99.97s-3.35-.32-4.91-.97c-1.5-.7-2.82-1.61-3.94-2.74-1.13-1.13-2.04-2.44-2.74-3.94-.64-1.5-.97-3.11-.97-4.83s.32-3.43.97-4.99c.7-1.56 1.61-2.9 2.74-4.02 1.13-1.13 2.44-2.01 3.94-2.66 1.56-.7 3.19-1.05 4.91-1.05s3.43.35 4.99 1.05c1.56.64 2.9 1.53 4.02 2.66 1.18 1.13 2.12 2.47 2.82 4.02.7 1.56 1.05 3.22 1.05 4.99zm45.05 107.92c-7.19 0-12.72-2.01-16.58-6.04-3.81-4.08-5.71-9.68-5.71-16.82v-46.11h-8.45c-1.07 0-1.98-.35-2.74-1.05-.75-.7-1.13-1.74-1.13-3.14v-7.89l13.28-2.17 4.18-22.53c.27-1.07.78-1.9 1.53-2.49s1.72-.89 2.9-.89h10.3v25.99h22.05v14.16h-22.05v44.74c0 2.58.62 4.59 1.85 6.04 1.29 1.45 3.03 2.17 5.23 2.17 1.24 0 2.25-.13 3.06-.4.86-.32 1.58-.64 2.17-.97.64-.32 1.21-.62 1.69-.89.48-.32.97-.48 1.45-.48.59 0 1.08.16 1.45.48.38.27.78.7 1.21 1.29l5.96 9.66c-2.9 2.41-6.22 4.24-9.98 5.47-3.75 1.23-7.65 1.85-11.67 1.85zm84.93-52.07c0-2.58-.37-4.99-1.13-7.24-.69-2.31-1.77-4.32-3.22-6.04s-3.3-3.06-5.55-4.02c-2.2-1.02-4.77-1.53-7.73-1.53-5.74 0-10.27 1.64-13.6 4.91-3.27 3.27-5.36 7.91-6.28 13.92h37.5zm-37.9 11.99c.32 4.24 1.08 7.91 2.25 11.03 1.18 3.06 2.74 5.61 4.67 7.65 1.93 1.99 4.21 3.49 6.84 4.51 2.69.97 5.63 1.45 8.85 1.45s5.98-.38 8.29-1.13c2.36-.75 4.4-1.58 6.12-2.49 1.77-.91 3.3-1.74 4.59-2.49 1.34-.75 2.63-1.13 3.86-1.13 1.66 0 2.9.62 3.7 1.85l5.71 7.24c-2.2 2.58-4.67 4.75-7.4 6.52-2.74 1.72-5.6 3.11-8.61 4.18-2.95 1.02-5.98 1.74-9.09 2.17-3.06.43-6.04.64-8.93.64-5.74 0-11.08-.94-16.01-2.82-4.93-1.93-9.23-4.75-12.88-8.45-3.65-3.76-6.52-8.37-8.61-13.84-2.09-5.53-3.14-11.91-3.14-19.15 0-5.63.91-10.92 2.74-15.85 1.83-4.99 4.43-9.31 7.81-12.96 3.44-3.7 7.59-6.63 12.47-8.77 4.94-2.15 10.49-3.22 16.66-3.22 5.21 0 10.01.83 14.41 2.49s8.18 4.1 11.35 7.32c3.17 3.17 5.63 7.08 7.4 11.75 1.83 4.61 2.74 9.9 2.74 15.85 0 3-.32 5.04-.97 6.12-.64 1.02-1.88 1.53-3.7 1.53h-51.1zm134.21-5.15-14.16-38.71c-.7-1.72-1.42-3.76-2.17-6.12s-1.5-4.91-2.25-7.65c-.7 2.74-1.42 5.31-2.17 7.73-.75 2.36-1.48 4.43-2.17 6.2l-14.08 38.55h37.02zm38.23 43.94h-16.74c-1.88 0-3.41-.46-4.59-1.37-1.18-.97-2.07-2.15-2.66-3.54l-8.69-23.74h-48.21l-8.69 23.74c-.43 1.23-1.26 2.36-2.49 3.38-1.24 1.02-2.77 1.53-4.59 1.53h-16.9l45.79-116.37h22.05l45.71 116.37zm33.77 0h-21.73v-116.37h21.73z"/></g></svg>