<svg fill="none" height="32" name="IgniteaiLogo" stroke-width="1.875" viewBox="0 0 24 24" width="32" xmlns="http://www.w3.org/2000/svg"><g fill="#0b1722"><path d="m11.0621 2.53451c.3222-.87062 1.5536-.87062 1.8758 0l2.1436 5.79316c.1013.27372.3171.48953.5908.59081l5.7932 2.14362c.8706.3222.8706 1.5536 0 1.8758l-5.7932 2.1436c-.2737.1013-.4895.3171-.5908.5908l-2.1436 5.7932c-.3222.8706-1.5536.8706-1.8758 0l-2.14361-5.7932c-.10129-.2737-.3171-.4895-.59082-.5908l-5.79316-2.1436c-.87062-.3222-.87062-1.5536 0-1.8758l5.79316-2.14361c.27372-.10129.48953-.3171.59081-.59082z"/><path d="m19.5311 1.26725c.1611-.435307.7767-.435306.9378 0l.6115 1.65239 1.6523.61143c.4354.16108.4354.77678 0 .93786l-1.6523.61143-.6115 1.65239c-.1611.43531-.7767.43531-.9378 0l-.6115-1.65239-1.6523-.61143c-.4354-.16108-.4354-.77678 0-.93786l1.6523-.61143z"/></g></svg>