<svg viewBox="0 0 464 155" xmlns="http://www.w3.org/2000/svg" xmlns:xlink="http://www.w3.org/1999/xlink"><radialGradient id="a" cx="-6005.88" cy="2646.21" gradientTransform="matrix(-52.4969305 86.00377833 -86.04645587 -52.52298099 -87341.32 655488.61)" gradientUnits="userSpaceOnUse" r="1.33"><stop offset="0" stop-color="#80c242"/><stop offset=".52" stop-color="#61b695"/><stop offset=".66" stop-color="#5fbba4"/><stop offset=".89" stop-color="#5ac4c2"/><stop offset="1" stop-color="#65c8d6"/><stop offset="1" stop-color="#62c7d2"/></radialGradient><radialGradient id="b" cx="-6026.03" cy="2608.07" gradientTransform="matrix(-69.49602324 63.50308932 -40.60851899 -44.44083917 -312542.14 498619)" gradientUnits="userSpaceOnUse" r="1.33"><stop offset="0" stop-color="#2576bb"/><stop offset=".67" stop-color="#2576bb" stop-opacity=".84"/><stop offset="1" stop-color="#2576bb" stop-opacity="0"/></radialGradient><path d="m0 49.78h11.39v46.32h28.38v10.57h-39.77zm75.54 32.6h23.04v-9.96h-23.04v-12.07h29.19v-10.57h-40.58v56.89h41.06v-10.57h-29.68v-13.72zm53.83 24.29 23.61-56.89h10.7l23.68 56.89h-12.3l-4.27-10.89h-24.87l-4.27 10.89h-12.3zm155.25-56.89c14.09 0 22.53 7.55 22.53 19.02h-.04c0 7.81-3.84 13.5-10.82 16.34l13.12 21.53h-12.81l-11.39-19.43h-9.35v19.43h-11.39v-56.89zm128.14 0s.13 37.46.08 37.46h-.08l-27.88-37.46h-10.75v56.89h11.39s-.12-37.87-.09-37.87h.09l27.88 37.87h10.75v-56.89zm-126.67 27.39h-10.16v-16.83h10.16c6.23 0 9.27 3.98 9.27 8.45s-2.99 8.38-9.27 8.38zm-136.22 8.6s8.47-22.26 8.54-22.26c.03 0 8.54 22.26 8.54 22.26z" fill="#383c45" fill-rule="evenodd"/><path d="m320.24 131.27c-23.25 17.17-54.94 17.33-78.37.41l3.42-4.72c-21.56-15.45-30.66-43.04-22.52-68.27l5.55 1.05c7.65-22.6 28.9-37.77 52.78-37.69v-22.05c-33.6.04-63.35 21.69-73.7 53.63s1.06 66.91 28.26 86.61c27.2 19.71 64 19.67 91.17-.08 27.16-19.76 38.51-54.74 28.1-86.66l-5.11 1.66c9.89 29.8-.61 62.56-25.99 81.07" fill="url(#a)"/><path d="m320.24 131.27c-23.25 17.17-54.94 17.33-78.37.41l3.42-4.72c-21.56-15.45-30.66-43.04-22.52-68.27l5.55 1.05c7.65-22.6 28.9-37.77 52.78-37.69v-22.05c-33.6.04-63.35 21.69-73.7 53.63s1.06 66.91 28.26 86.61c27.2 19.71 64 19.67 91.17-.08 27.16-19.76 38.51-54.74 28.1-86.66l-5.11 1.66c9.89 29.8-.61 62.56-25.99 81.07" fill="url(#b)"/><path d="m294.63 0v21.33l4.1-.03v-7.11h5c.93 0 1.84-.2 2.68-.6.79-.39 1.5-.93 2.08-1.59.57-.67 1.02-1.44 1.34-2.26.31-.84.47-1.73.47-2.63s-.16-1.76-.48-2.59c-.34-.84-.82-1.61-1.42-2.29-.59-.67-1.31-1.23-2.12-1.62-.84-.41-1.76-.61-2.69-.61h-8.96zm8.85 10.55h-4.75v-6.87h4.57c.37 0 .73.07 1.07.21.34.16.65.39.9.68.27.32.48.7.63 1.1.16.46.24.94.24 1.42.05.9-.22 1.79-.77 2.52-.44.6-1.14.95-1.88.94z" fill="#383c45" fill-rule="evenodd"/><path d="m315.98 21.33v-21.33h3.93v17.69h10.3v3.64z" fill="#383c45"/><path d="m344.87 0h-3.67l-8.14 21.33h4.27l1.95-5.32h7.46l1.98 5.32h4.27zm-1.85 4.72 2.96 8.38h-6.02z" fill="#383c45" fill-rule="evenodd"/><path d="m371.48 3.64h-6.56v17.69h-3.96v-17.69h-6.56v-3.64h17.08z" fill="#383c45"/><path d="m375.75 21.33v-21.33h14.23v3.64h-10.12v5.49h8.43v3.37h-8.43v8.83z" fill="#383c45"/><path d="m400.15 20.44c1.27.61 2.66.91 4.07.9 1.37 0 2.72-.29 3.96-.87 1.2-.56 2.27-1.36 3.16-2.35 1.84-2.02 2.86-4.66 2.85-7.4-.03-2.69-1-5.29-2.73-7.35-.87-1-1.93-1.83-3.12-2.43-1.25-.63-2.64-.96-4.04-.94-1.39-.02-2.76.28-4.01.88-1.2.56-2.28 1.36-3.17 2.35-.9 1-1.6 2.16-2.08 3.41-.51 1.28-.77 2.65-.77 4.02s.26 2.68.74 3.94c.46 1.26 1.14 2.42 2.02 3.43.88 1 1.94 1.81 3.13 2.4zm-1.47-7.14c-.27-.85-.4-1.74-.4-2.63s.12-1.73.37-2.56c.24-.81.63-1.57 1.14-2.25.5-.67 1.13-1.21 1.86-1.61.79-.42 1.67-.63 2.56-.61.87 0 1.73.21 2.5.63.72.35 1.35.85 1.87 1.46.52.68.92 1.45 1.18 2.26.27.85.41 1.74.41 2.63s-.13 1.73-.38 2.56c-.25.82-.64 1.59-1.15 2.28-.5.66-1.14 1.21-1.87 1.61-.78.43-1.66.66-2.55.65-.88.02-1.74-.19-2.52-.6-.72-.38-1.36-.92-1.86-1.56-.52-.68-.92-1.44-1.17-2.26z" fill="#383c45" fill-rule="evenodd"/><path d="m419.88 0v21.33h4.16v-7.11h4.04l4.27 7.11h4.61l-4.78-8.02c1.19-.48 2.19-1.34 2.85-2.45.69-1.14 1.04-2.44 1.02-3.77 0-.88-.18-1.76-.51-2.57-.33-.84-.82-1.62-1.42-2.29-.62-.68-1.36-1.23-2.19-1.62-.84-.41-1.77-.62-2.7-.61h-9.35zm9.25 10.55h-5.14v-6.91h4.97c.36 0 .73.09 1.05.26.35.17.67.41.93.71.59.69.9 1.58.87 2.49 0 .46-.07.91-.2 1.35-.13.39-.32.76-.57 1.1-.23.3-.52.55-.85.74-.32.18-.68.27-1.05.27z" fill="#383c45" fill-rule="evenodd"/><path d="m459.89 21.33v-14.12l-5.44 10.51h-2.25l-5.44-10.51v14.12h-4.11v-21.33h4.41l6.25 12.15 6.32-12.15h4.37v21.33z" fill="#383c45"/><g fill="#143d50"><path d="m0 137.77v-12.81h6.29c2.35 0 3.65 1.46 3.65 3.26.06 1.39-.87 2.63-2.23 2.94 1.47.32 2.51 1.64 2.48 3.15 0 2-1.32 3.46-3.72 3.46zm7.64-9.16c.02-.91-.7-1.66-1.6-1.68h-3.84v3.32h3.59c.89.11 1.69-.53 1.8-1.42 0-.08.01-.15.01-.23m.25 5.39c0-.97-.77-1.77-1.74-1.78-.09 0-.17 0-.26.02h-3.65v3.55h3.69c.94.15 1.83-.49 1.98-1.44.02-.12.03-.24.02-.35"/><path d="m18.13 137.77v-5.32l-4.97-7.49h2.57l3.53 5.49 3.5-5.49h2.57l-4.95 7.49v5.32z"/><path d="m36.82 124.96h3.3v12.8h-3.3z"/><path d="m53.83 137.77-5.42-7.41v7.41h-3.3v-12.81h3.4l5.18 7.05v-7.05h3.33v12.81z"/><path d="m61.08 135.96 1.75-2.48c1.08 1.09 2.56 1.7 4.09 1.69 1.13 0 1.82-.44 1.82-1 0-1.75-7.26-.35-7.26-5.28 0-2.15 1.83-4.07 5.11-4.07 1.89-.06 3.74.57 5.2 1.78l-1.79 2.32c-1.06-.86-2.39-1.33-3.75-1.33-1 0-1.38.38-1.38.92 0 1.63 7.24.45 7.24 5.21 0 2.57-1.9 4.28-5.34 4.28-2.08.12-4.13-.6-5.68-2"/><path d="m78.85 137.77v-9.93h-3.59v-2.88h10.47v2.88h-3.57v9.93z"/><path d="m97.13 137.77-2.15-4.3h-1.69v4.3h-3.29v-12.81h6.41c2.27-.19 4.26 1.5 4.45 3.76.01.17.02.33.01.5.09 1.7-.95 3.26-2.55 3.84l2.61 4.71zm.36-8.57c-.03-.79-.7-1.4-1.49-1.37h-2.71v2.75h2.61c.78.09 1.49-.46 1.58-1.24 0-.05 0-.1.01-.15"/><path d="m105.35 132.58v-7.62h3.36v7.51c0 1.49 1.21 2.7 2.7 2.7s2.69-1.21 2.7-2.7v-7.51h3.34v7.6c0 3.19-1.94 5.44-6 5.44s-6.07-2.27-6.07-5.42"/><path d="m121.78 131.37c0-4 3-6.62 6.93-6.62 2.39-.09 4.59 1.27 5.59 3.44l-2.84 1.34c-.47-1.1-1.55-1.83-2.75-1.86-2.05.11-3.62 1.85-3.51 3.9.1 1.9 1.61 3.41 3.51 3.51 1.2-.03 2.27-.76 2.75-1.86l2.84 1.34c-1.02 2.15-3.21 3.5-5.59 3.44-3.93 0-6.93-2.69-6.93-6.63"/><path d="m141.26 137.77v-9.93h-3.59v-2.88h10.47v2.88h-3.58v9.93z"/><path d="m152.39 132.58v-7.62h3.36v7.51c0 1.49 1.21 2.7 2.7 2.7s2.69-1.21 2.7-2.7v-7.51h3.34v7.6c0 3.19-1.94 5.44-6 5.44s-6.07-2.27-6.07-5.42"/><path d="m176.62 137.77-2.15-4.3h-1.69v4.3h-3.31v-12.81h6.41c2.27-.19 4.26 1.5 4.45 3.76 0 .17.02.33 0 .5.09 1.7-.95 3.26-2.55 3.84l2.61 4.71h-3.78zm.36-8.57c-.03-.79-.7-1.4-1.49-1.37h-2.71v2.75h2.61c.78.11 1.49-.44 1.6-1.22 0-.06 0-.12 0-.17"/><path d="m184.85 137.77v-12.81h9.38v2.88h-6.08v2h5.95v2.88h-5.95v2.17h6.08v2.88z"/></g></svg>