<svg height="155" viewBox="203 0 155 155" width="155" xmlns="http://www.w3.org/2000/svg"><g fill="#0b1722"><path d="m320.24 131.27c-23.25 17.17-54.94 17.33-78.37.41l3.42-4.72c-21.56-15.45-30.66-43.04-22.52-68.27l5.55 1.05c7.65-22.6 28.9-37.77 52.78-37.69v-22.05c-33.6.04-63.35 21.69-73.7 53.63s1.06 66.91 28.26 86.61c27.2 19.71 64 19.67 91.17-.08 27.16-19.76 38.51-54.74 28.1-86.66l-5.11 1.66c9.89 29.8-.61 62.56-25.99 81.07"/><path d="m320.24 131.27c-23.25 17.17-54.94 17.33-78.37.41l3.42-4.72c-21.56-15.45-30.66-43.04-22.52-68.27l5.55 1.05c7.65-22.6 28.9-37.77 52.78-37.69v-22.05c-33.6.04-63.35 21.69-73.7 53.63s1.06 66.91 28.26 86.61c27.2 19.71 64 19.67 91.17-.08 27.16-19.76 38.51-54.74 28.1-86.66l-5.11 1.66c9.89 29.8-.61 62.56-25.99 81.07"/></g></svg>