<svg height="155" viewBox="203 0 155 155" width="155" xmlns="http://www.w3.org/2000/svg" xmlns:xlink="http://www.w3.org/1999/xlink"><radialGradient id="a" cx="-5381.52" cy="2837.34" gradientTransform="matrix(-52.4969305 86.00377833 -86.04645587 -52.52298099 -38118.82 611831.08)" gradientUnits="userSpaceOnUse" r="1.33"><stop offset="0" stop-color="#80c242"/><stop offset=".52" stop-color="#61b695"/><stop offset=".66" stop-color="#5fbba4"/><stop offset=".89" stop-color="#5ac4c2"/><stop offset="1" stop-color="#65c8d6"/><stop offset="1" stop-color="#62c7d2"/></radialGradient><radialGradient id="b" cx="-5400.26" cy="2799.57" gradientTransform="matrix(-69.49602324 63.50308932 -40.60851899 -44.44083917 -261277.63 467391.57)" gradientUnits="userSpaceOnUse" r="1.33"><stop offset="0" stop-color="#2576bb"/><stop offset=".67" stop-color="#2576bb" stop-opacity=".84"/><stop offset="1" stop-color="#2576bb" stop-opacity="0"/></radialGradient><path d="m320.24 131.27c-23.25 17.17-54.94 17.33-78.37.41l3.42-4.72c-21.56-15.45-30.66-43.04-22.52-68.27l5.55 1.05c7.65-22.6 28.9-37.77 52.78-37.69v-22.05c-33.6.04-63.35 21.69-73.7 53.63s1.06 66.91 28.26 86.61c27.2 19.71 64 19.67 91.17-.08 27.16-19.76 38.51-54.74 28.1-86.66l-5.11 1.66c9.89 29.8-.61 62.56-25.99 81.07" fill="url(#a)"/><path d="m320.24 131.27c-23.25 17.17-54.94 17.33-78.37.41l3.42-4.72c-21.56-15.45-30.66-43.04-22.52-68.27l5.55 1.05c7.65-22.6 28.9-37.77 52.78-37.69v-22.05c-33.6.04-63.35 21.69-73.7 53.63s1.06 66.91 28.26 86.61c27.2 19.71 64 19.67 91.17-.08 27.16-19.76 38.51-54.74 28.1-86.66l-5.11 1.66c9.89 29.8-.61 62.56-25.99 81.07" fill="url(#b)"/></svg>